<?xml version="1.0" encoding="UTF-8"?>
<svg version="1.1" xmlns="http://www.w3.org/2000/svg" width="1919" height="905">
<path d="M0 0 C633.27 0 1266.54 0 1919 0 C1919 298.65 1919 597.3 1919 905 C1285.73 905 652.46 905 0 905 C0 606.35 0 307.7 0 0 Z " fill="#FDD5E1" transform="translate(0,0)"/>
<path d="M0 0 C1.05315261 -0.00317733 2.10630523 -0.00635465 3.19137155 -0.00962826 C6.73294163 -0.01786223 10.27434364 -0.01183236 13.8159163 -0.00591189 C16.38657361 -0.00890769 18.95723002 -0.01277758 21.52788484 -0.01744422 C27.14110182 -0.02620651 32.75428265 -0.02752382 38.36750481 -0.02400994 C46.77076953 -0.01878234 55.17399899 -0.02503949 63.57725966 -0.03352342 C77.89860549 -0.04763617 92.2199403 -0.05219093 106.54129243 -0.05155188 C121.0574127 -0.05093028 135.57352226 -0.05460697 150.0896399 -0.06353194 C151.0060147 -0.06409172 151.92238949 -0.06465151 152.86653322 -0.06522826 C156.59870646 -0.06751986 160.33087969 -0.06983821 164.06305289 -0.07219155 C203.01307897 -0.09671126 241.96310068 -0.10685882 280.91313359 -0.11171871 C285.10670763 -0.1122424 289.30028167 -0.11276824 293.49385571 -0.11329538 C295.05478404 -0.11348897 295.05478404 -0.11348897 296.64724626 -0.11368647 C319.69818063 -0.11659101 342.74911376 -0.12274889 365.80004731 -0.12939269 C375.28895037 -0.13211611 384.77785345 -0.13474716 394.26675653 -0.13737833 C395.31516966 -0.13766925 396.36358278 -0.13796016 397.443766 -0.13825989 C457.53037045 -0.15488456 517.61697432 -0.16674039 577.70358109 -0.1691733 C579.952663 -0.16926793 582.2017449 -0.16936294 584.4508268 -0.16945833 C594.60546223 -0.16988608 604.76009767 -0.17029146 614.91473311 -0.17069669 C619.44303297 -0.17087829 623.97133282 -0.17106318 628.49963267 -0.17124876 C630.7661293 -0.17134078 633.03262592 -0.17143118 635.29912254 -0.17151995 C706.97695519 -0.17433473 778.65475973 -0.19606618 850.33258271 -0.23291022 C903.78174104 -0.26037902 957.230894 -0.28626781 1010.68005967 -0.29285532 C1011.75564451 -0.29298876 1012.83122934 -0.2931222 1013.93940766 -0.29325968 C1037.54952493 -0.29613181 1061.15964208 -0.29754923 1084.76975951 -0.29761789 C1093.21759499 -0.29765757 1101.66543047 -0.29781453 1110.11326594 -0.29803241 C1112.21491924 -0.29808605 1114.31657253 -0.29813417 1116.41822583 -0.29817673 C1149.92371051 -0.29892059 1183.4291675 -0.314596 1216.93464352 -0.33778804 C1250.67518295 -0.36103997 1284.4156867 -0.36829692 1318.15623208 -0.35360717 C1322.81675863 -0.35157945 1327.47728524 -0.34972552 1332.1378119 -0.34797484 C1333.50821907 -0.34744975 1333.50821907 -0.34744975 1334.90631123 -0.34691406 C1349.38279087 -0.34182387 1363.85920636 -0.3535368 1378.33567279 -0.37221939 C1392.56439381 -0.39023289 1406.79302238 -0.39045726 1421.02174341 -0.37165707 C1429.36728355 -0.36116534 1437.71254765 -0.3643804 1446.05806314 -0.38777583 C1452.24918951 -0.40360753 1458.44001468 -0.3934354 1464.63112195 -0.3730322 C1467.12360952 -0.3688656 1469.61612863 -0.37312787 1472.10858257 -0.38672988 C1490.40146022 -0.47996978 1502.55281035 1.01431995 1516.27496552 14.05883783 C1526.4597763 24.77735048 1528.7780272 36.14008343 1528.58355927 50.28540033 C1528.22746798 62.04733595 1523.0527739 71.49244081 1515.06402802 80.06665033 C1504.85860919 89.54473419 1493.05224734 92.73155788 1479.38342059 92.63134849 C1478.32675545 92.63567967 1477.27009031 92.64001085 1476.18140502 92.64447328 C1472.64588277 92.6553168 1469.11075257 92.64485122 1465.5752337 92.63446707 C1463.00187657 92.63790072 1460.42852091 92.64264762 1457.85516834 92.64858803 C1452.24535826 92.6594066 1446.6356343 92.65910422 1441.02582018 92.651515 C1432.62776096 92.64020811 1424.2297744 92.646226 1415.83171594 92.65557899 C1401.51818491 92.67100951 1387.20468427 92.67218647 1372.89114785 92.66559976 C1358.38596268 92.65897292 1343.88079924 92.6588459 1329.3756144 92.6666469 C1328.45946203 92.6671349 1327.54330966 92.66762289 1326.59939509 92.66812568 C1322.86805555 92.67013386 1319.13671604 92.67218696 1315.40537655 92.67429742 C1277.52421338 92.69570062 1239.64306627 92.69775153 1201.76189856 92.69224038 C1196.52731668 92.69148468 1191.2927348 92.69075706 1186.05815291 92.69005841 C1185.01846176 92.68991932 1183.9787706 92.68978023 1182.90757365 92.68963692 C1159.87238396 92.68668536 1136.8371962 92.68969667 1113.80200686 92.6939547 C1110.64995078 92.69453685 1107.4978947 92.6951057 1104.34583862 92.69567033 C1095.89644245 92.69718526 1087.44704627 92.69871217 1078.9976501 92.70026334 C1020.0113649 92.71102072 961.02508149 92.71572109 902.03879571 92.70779318 C900.37080215 92.70757072 900.37080215 92.70757072 898.66911176 92.70734376 C886.26893952 92.70568474 873.86876729 92.70393516 861.46859507 92.70215075 C859.78923719 92.70190922 859.78923719 92.70190922 858.07595289 92.7016628 C848.98912234 92.70035494 848.98912234 92.70035494 844.49302267 92.69970161 C772.86271048 92.6893076 701.23242286 92.69708117 629.60211396 92.72070307 C611.55020043 92.72664631 593.49828688 92.7325378 575.44637322 92.73811239 C573.77915547 92.73862805 573.77915547 92.73862805 572.07825654 92.73915412 C537.83289072 92.74967846 503.58752695 92.75527538 469.34215951 92.75566953 C468.26733136 92.75568232 467.19250321 92.7556951 466.08510451 92.75570827 C442.49256997 92.75593654 418.9000356 92.75493066 395.30750115 92.75279922 C386.86623841 92.75204443 378.42497567 92.75136623 369.98371292 92.75071906 C367.88369452 92.75055637 365.78367613 92.75038871 363.68365773 92.75021605 C330.19765162 92.74749289 296.7116604 92.75605743 263.22565749 92.77007015 C228.57382823 92.78446444 193.92202733 92.78404475 159.27019905 92.76669543 C155.55167923 92.76489119 151.83315939 92.76315101 148.11463952 92.7614612 C147.20203311 92.7610407 146.28942669 92.7606202 145.34916554 92.76018695 C130.88018579 92.75388132 116.41124492 92.7610052 101.94227065 92.7736704 C87.72604643 92.78583229 73.50988377 92.7837792 59.29366425 92.76645008 C50.95224642 92.75670886 42.61100317 92.75796066 34.26959665 92.77528006 C28.08687669 92.78690151 21.90435365 92.77779769 15.72165079 92.76043421 C13.22862575 92.75668196 10.73557951 92.75970731 8.2425735 92.7701473 C4.86770134 92.78331235 1.49376893 92.77196134 -1.88106287 92.75439632 C-2.84804116 92.76407742 -3.81501946 92.77375853 -4.81130013 92.783733 C-11.24982211 92.71449596 -15.96152252 91.28668918 -21.62347198 88.25415033 C-22.5541751 87.77333002 -23.48487823 87.29250971 -24.44378448 86.79711908 C-35.57273371 80.25178792 -43.77027456 71.01736919 -47.15472198 58.28540033 C-49.40614107 43.72622354 -47.8245446 31.10243544 -39.49456573 18.78930658 C-29.60809958 5.39407374 -16.29169585 -0.07435311 0 0 Z " fill="#FEFBFC" transform="translate(219.62347197532654,363.74584966897964)"/>
<path d="M0 0 C29.36815503 -0.09133956 58.73629996 -0.16208466 88.10456808 -0.20426132 C91.57532752 -0.20926387 95.04608668 -0.21444119 98.5168457 -0.21972656 C99.20778292 -0.2207758 99.89872013 -0.22182505 100.61059483 -0.22290608 C111.78383175 -0.24028983 122.95698597 -0.27181624 134.1301739 -0.30861118 C145.60324427 -0.3460773 157.07624765 -0.36794858 168.54938096 -0.37635398 C174.99017486 -0.38156341 181.43078146 -0.39378628 187.87151527 -0.42292023 C193.93797326 -0.45013798 200.00416737 -0.45843201 206.07068062 -0.45243073 C208.29301641 -0.4535281 210.51536134 -0.46144376 212.7376442 -0.4768219 C237.8734284 -0.64217955 237.8734284 -0.64217955 246.9375 7.125 C252.58658147 13.5073757 254.72471111 20.88854449 254.390625 29.32421875 C253.31967601 36.66021932 249.57987183 43.13613302 243.78242016 47.77404499 C233.49460971 53.64254539 222.82674719 52.83779061 211.30004883 52.76049805 C209.00748363 52.76699915 206.71492449 52.77606579 204.42237854 52.78749084 C198.2241223 52.81048523 192.0264852 52.79590482 185.82824922 52.77302146 C179.33020844 52.75404927 172.83220772 52.7652723 166.33415222 52.77192688 C154.72953071 52.77866333 143.12518791 52.75596055 131.52062526 52.72098748 C121.01210629 52.69007663 110.50390476 52.68773763 99.99536133 52.70678711 C86.46255412 52.73129089 72.93004269 52.73030153 59.39722252 52.70801735 C54.23830925 52.70004183 49.0795421 52.70201028 43.92063332 52.71204185 C37.84567449 52.72260687 31.77125913 52.70842534 25.69638634 52.67529869 C23.4700048 52.66710462 21.24357336 52.66735995 19.01719666 52.67677689 C15.97255539 52.68823875 12.9295939 52.66876906 9.88508606 52.64164734 C8.57096472 52.65735457 8.57096472 52.65735457 7.23029548 52.67337912 C0.67786994 52.56500633 -3.5330279 50.47460206 -9 47 C-10.093125 46.443125 -11.18625 45.88625 -12.3125 45.3125 C-17.43857001 40.90169557 -18.68745526 35.68626815 -19.453125 29.10546875 C-19.88568127 21.70220271 -19.49027076 15.68473974 -14.65625 9.69921875 C-7.25390603 2.10483284 -7.25390603 2.10483284 -2.3125 1.875 C-1.549375 1.91625 -0.78625 1.9575 0 2 C0 1.34 0 0.68 0 0 Z " fill="#FE4CA9" transform="translate(843,476)"/>
<path d="M0 0 C1.19301224 -0.00571014 2.38602448 -0.01142029 3.6151886 -0.01730347 C4.91559082 -0.01842133 6.21599304 -0.01953918 7.55580139 -0.02069092 C8.94580211 -0.02532265 10.33580157 -0.03034779 11.72579956 -0.03573608 C15.49438073 -0.04882464 19.26294411 -0.05529767 23.03154445 -0.05974674 C25.38730974 -0.06268215 27.74307022 -0.06678776 30.09883308 -0.07125092 C37.47355181 -0.08491419 44.84825947 -0.09458755 52.22298998 -0.09845281 C60.72915594 -0.10293605 69.23516142 -0.12050112 77.74127859 -0.1494534 C84.32231377 -0.17107442 90.90330379 -0.18115725 97.48437411 -0.18249393 C101.41259825 -0.18354131 105.34067128 -0.18943532 109.26885796 -0.20731354 C112.96333523 -0.22380241 116.65754789 -0.22594591 120.35204887 -0.21717453 C122.34996846 -0.21603828 124.34787931 -0.22974782 126.3457489 -0.243927 C128.13949699 -0.23557327 128.13949699 -0.23557327 129.96948242 -0.22705078 C131.0046144 -0.22851734 132.03974638 -0.2299839 133.10624599 -0.2314949 C138.60030609 0.46308434 142.35863202 2.9663802 145.86073303 7.14044189 C146.44467834 7.82106689 147.02862366 8.50169189 147.63026428 9.20294189 C151.80513075 14.90744264 150.66530407 24.33248379 150.04823303 31.14044189 C148.5334896 37.17344859 145.05884051 40.66369385 140.04823303 44.14044189 C136.27138668 45.95853397 133.27241369 46.39285356 129.09646606 46.40113831 C127.90345383 46.40822311 126.71044159 46.41530792 125.48127747 46.42260742 C124.18087524 46.42013 122.88047302 46.41765259 121.54066467 46.4151001 C120.1506625 46.4194496 118.76066273 46.42463355 117.3706665 46.43058777 C113.60205778 46.44396315 109.83354944 46.4445581 106.06492162 46.44202447 C102.9163172 46.44095381 99.76773301 46.44584055 96.61913294 46.45062989 C89.18996663 46.46171993 81.76085088 46.46216526 74.3316803 46.45611572 C66.67277769 46.45007494 59.01405875 46.46239069 51.35518748 46.48368579 C44.77414374 46.50130983 38.19315842 46.5073019 31.61209196 46.50404805 C27.68387986 46.50223639 23.7557988 46.50485965 19.82760811 46.51876259 C16.13311434 46.53134952 12.43890663 46.52938885 8.74441719 46.5163517 C6.74650958 46.5128634 4.7485932 46.52415741 2.75071716 46.53591919 C0.95696907 46.52539772 0.95696907 46.52539772 -0.87301636 46.5146637 C-1.90814834 46.51483144 -2.94328032 46.51499918 -4.00977993 46.515172 C-9.38691916 45.83026893 -13.21588417 43.38147992 -16.70176697 39.32794189 C-17.27411072 38.68212158 -17.84645447 38.03630127 -18.43614197 37.37091064 C-22.98362341 30.67861193 -22.65450984 22.91509086 -21.95176697 15.14044189 C-20.35134307 9.06458109 -16.31745247 4.36431531 -10.95176697 1.14044189 C-7.25867061 0.21648119 -3.7989161 0.01092094 0 0 Z " fill="#FE4CA9" transform="translate(895.9517669677734,678.8595581054688)"/>
<path d="M0 0 C1.82416236 1.89230636 3.3707406 3.93040022 5 6 C5.66 6 6.32 6 7 6 C7.95667968 4.84449231 8.86709297 3.65031046 9.75 2.4375 C11.35546875 0.50390625 11.35546875 0.50390625 13 -1 C17.38098233 -1.17881561 20.52646513 0.39484885 24 3 C25.85806097 5.44926219 26.02383645 6.63934408 25.8203125 9.71875 C24.8288337 13.68466521 22.85773057 16.43712506 20.5 19.6875 C16.82701585 25.01570379 15.00684326 29.05587424 15.09765625 35.6953125 C14.98523149 38.34853674 14.4420937 39.78212652 13 42 C9.82036436 44.11975709 7.8057093 44.55880935 4.00390625 44.42578125 C1.17919908 43.82559981 -0.44817542 42.36865282 -2.11328125 40.05078125 C-3.57966734 36.65935968 -3.61281758 33.24482459 -3.6640625 29.5859375 C-4.05441234 26.58115149 -5.01390752 25.2382947 -7 23 C-7.474375 24.051875 -7.94875 25.10375 -8.4375 26.1875 C-11.0705725 30.83076764 -15.09211583 33.12498087 -20 35 C-21.32 35 -22.64 35 -24 35 C-24.0825 35.7425 -24.165 36.485 -24.25 37.25 C-25.19367982 40.71015935 -26.044301 41.95374685 -29 44 C-33.96682464 44.78838486 -33.96682464 44.78838486 -37 44 C-40.81702619 40.67025375 -41.77119124 39.09124179 -42.8125 34.125 C-42.874375 33.09375 -42.93625 32.0625 -43 31 C-43.53109375 31.28875 -44.0621875 31.5775 -44.609375 31.875 C-45.31578125 32.24625 -46.0221875 32.6175 -46.75 33 C-47.44609375 33.37125 -48.1421875 33.7425 -48.859375 34.125 C-51 35 -51 35 -55 35 C-54.896875 35.7425 -54.79375 36.485 -54.6875 37.25 C-55 40 -55 40 -57.0625 42.3125 C-60.77276678 44.44392985 -62.78154109 44.67796661 -67 44 C-69.63016161 41.8272578 -71.47336894 40.05326212 -73 37 C-73.928125 37.804375 -74.85625 38.60875 -75.8125 39.4375 C-80.65348998 43.63302465 -85.56785617 43.32149043 -91.74609375 43.30078125 C-96.16201441 42.8925869 -98.48124887 41.61860549 -102 39 C-102.61875 39.639375 -103.2375 40.27875 -103.875 40.9375 C-108.22425818 45.15883882 -113.03725927 44.29391813 -118.8125 44.375 C-120.31006836 44.43107422 -120.31006836 44.43107422 -121.83789062 44.48828125 C-129.26412482 44.57733669 -129.26412482 44.57733669 -133.13671875 41.5390625 C-134.05904297 40.28222656 -134.05904297 40.28222656 -135 39 C-135.33 38.67 -135.66 38.34 -136 38 C-136.23427778 35.98405418 -136.41336124 33.961526 -136.5625 31.9375 C-136.68818359 30.28041016 -136.68818359 30.28041016 -136.81640625 28.58984375 C-136.87699219 27.73519531 -136.93757812 26.88054687 -137 26 C-137.61875 26.639375 -138.2375 27.27875 -138.875 27.9375 C-141.58284512 30.56570262 -142.32057956 30.98641159 -146.125 31.0625 C-147.548125 31.0315625 -147.548125 31.0315625 -149 31 C-148.87625 32.299375 -148.87625 32.299375 -148.75 33.625 C-149.07949146 38.07313472 -149.78952041 39.86418273 -153 43 C-156.78434616 43.80970077 -160.24813502 43.98762328 -164 43 C-166.80168693 40.24380644 -167.91190226 38.58543202 -168.50170898 34.66601562 C-168.49985596 33.42529297 -168.49800293 32.18457031 -168.49609375 30.90625 C-168.49754898 30.23710571 -168.49900421 29.56796143 -168.50050354 28.87854004 C-168.49885048 27.46992621 -168.48735552 26.06129321 -168.46655273 24.65283203 C-168.43758164 22.5060495 -168.44595651 20.36173811 -168.45898438 18.21484375 C-168.40567186 6.47479544 -168.40567186 6.47479544 -165 2 C-161.60183325 -0.2654445 -160.3668758 -0.25668408 -156.37890625 -0.265625 C-154.72858398 -0.26949219 -154.72858398 -0.26949219 -153.04492188 -0.2734375 C-151.89572266 -0.26570313 -150.74652344 -0.25796875 -149.5625 -0.25 C-148.41716797 -0.25773437 -147.27183594 -0.26546875 -146.09179688 -0.2734375 C-144.99029297 -0.27085937 -143.88878906 -0.26828125 -142.75390625 -0.265625 C-141.74658447 -0.26336914 -140.7392627 -0.26111328 -139.70141602 -0.25878906 C-136.97710294 0.00219348 -135.32758143 0.60462896 -133 2 C-132.67 1.67 -132.34 1.34 -132 1 C-129.85546875 0.796875 -129.85546875 0.796875 -127.1875 0.75 C-126.31480469 0.72421875 -125.44210937 0.6984375 -124.54296875 0.671875 C-121.42977635 1.07357725 -120.24325039 1.82075021 -118 4 C-117.54589844 6.4519043 -117.54589844 6.4519043 -117.609375 9.32421875 C-117.62226562 10.35224609 -117.63515625 11.38027344 -117.6484375 12.43945312 C-117.68195312 13.51130859 -117.71546875 14.58316406 -117.75 15.6875 C-117.76804687 16.77095703 -117.78609375 17.85441406 -117.8046875 18.97070312 C-117.85185593 21.64751158 -117.92359967 24.32386634 -118 27 C-114.37 27 -110.74 27 -107 27 C-107.03480469 25.37449219 -107.06960938 23.74898438 -107.10546875 22.07421875 C-107.13360394 19.94532281 -107.16090438 17.81641573 -107.1875 15.6875 C-107.21263672 14.61564453 -107.23777344 13.54378906 -107.26367188 12.43945312 C-107.27333984 11.41142578 -107.28300781 10.38339844 -107.29296875 9.32421875 C-107.3086792 8.37635498 -107.32438965 7.42849121 -107.34057617 6.4519043 C-107 4 -107 4 -105.64160156 2.1965332 C-103.28250395 0.47703032 -101.45418023 0.53138866 -98.5625 0.5 C-97.61503906 0.4690625 -96.66757812 0.438125 -95.69140625 0.40625 C-93 1 -93 1 -90.66796875 2.91796875 C-88.3125407 7.27027024 -88.56152626 10.95205226 -88.75 15.8125 C-88.76804687 16.69615234 -88.78609375 17.57980469 -88.8046875 18.49023438 C-88.85161487 20.66062543 -88.92335269 22.83045519 -89 25 C-88.01 24.505 -88.01 24.505 -87 24 C-86.9906543 23.44538086 -86.98130859 22.89076172 -86.97167969 22.31933594 C-86.91784278 19.79533519 -86.83422746 17.27316186 -86.75 14.75 C-86.73582031 13.87730469 -86.72164062 13.00460937 -86.70703125 12.10546875 C-86.461738 5.67878557 -86.461738 5.67878557 -84.23828125 2.41015625 C-81.69743302 0.80937752 -80.41097879 0.54159326 -77.4375 0.6875 C-76.67308594 0.71199219 -75.90867187 0.73648437 -75.12109375 0.76171875 C-73 1 -73 1 -70 2 C-69.01 1.34 -68.02 0.68 -67 0 C-64.38544113 -0.25011353 -61.92708205 -0.3797744 -59.3125 -0.375 C-58.59368652 -0.37628906 -57.87487305 -0.37757813 -57.13427734 -0.37890625 C-51.3303092 -0.26311636 -47.82074995 0.91472003 -43 4 C-40.76077964 4.22655879 -40.76077964 4.22655879 -38.87109375 2.02734375 C-35.24333383 -0.53429897 -32.33739226 -0.56054704 -28.0625 -0.4375 C-27.37220703 -0.44458984 -26.68191406 -0.45167969 -25.97070312 -0.45898438 C-21.2168871 -0.40040655 -18.13474355 0.77780303 -14 3 C-11.31464927 2.29669386 -9.37263256 1.22125058 -7 -0.1875 C-4.15358177 -1.34385741 -2.86353866 -1.1174785 0 0 Z " fill="#FF2E9E" transform="translate(963,388)"/>
<path d="M0 0 C2.0625 1.875 2.0625 1.875 4 4 C8.60209288 6.49096006 13.27046866 6.36567023 18.375 6.5 C24.30932251 6.65763044 29.32519539 7.25943889 35 9 C37.97065509 8.65772428 37.97065509 8.65772428 41 8 C43.8113963 7.69975379 46.13312654 7.76880053 49 8 C51.1875 9.875 51.1875 9.875 53 12 C54.64991582 12.70710678 56.31562256 13.37943989 58 14 C60 16 60 16 60.25 18.875 C60 22 60 22 58.8046875 23.875 C57.68385075 26.08197837 57.68385075 26.08197837 59.1171875 28.5078125 C59.69726562 29.37148437 60.27734375 30.23515625 60.875 31.125 C64 35.84753363 64 35.84753363 64 38 C64.556875 37.96519531 65.11375 37.93039063 65.6875 37.89453125 C73.90441757 37.60305276 79.82544224 39.40430703 86 45 C85.53850055 49.96111905 84.34150727 52.34051959 81 56 C59.33029781 72.5116609 32.34971154 80.039572 6 85 C4.73414063 85.2475 3.46828125 85.495 2.1640625 85.75 C-6.13009707 87.11654345 -14.42053127 87.22862535 -22.8125 87.3125 C-23.9581543 87.33030518 -25.10380859 87.34811035 -26.28417969 87.36645508 C-33.53473134 87.35960698 -41.81709961 87.32074496 -47.76489258 82.59887695 C-49 81 -49 81 -49.125 77.75 C-47.03276983 70.77589942 -41.1270673 66.56224843 -35 63 C-34.34 63 -33.68 63 -33 63 C-33 62.34 -33 61.68 -33 61 C-33.66 61 -34.32 61 -35 61 C-37.35599061 57.31876467 -37.35837173 54.30046079 -37 50 C-36.16168758 47.23308444 -35.12499988 44.67187471 -34 42 C-33.01 42 -32.02 42 -31 42 C-30.62488281 41.18015625 -30.24976563 40.3603125 -29.86328125 39.515625 C-29.35152344 38.43796875 -28.83976563 37.3603125 -28.3125 36.25 C-27.81363281 35.18265625 -27.31476562 34.1153125 -26.80078125 33.015625 C-24.89841785 29.82988846 -23.01529792 28.11635901 -20 26 C-20.33 27.010625 -20.66 28.02125 -21 29.0625 C-22.34259072 33.84366841 -22.76155804 38.02890861 -20.9375 42.75 C-17.33373417 46.93501839 -12.29194804 48.15776038 -7 49 C3.59332316 49.67311741 16.46829005 50.46133663 25.09765625 43.24609375 C28.07275838 39.87712467 29.90649484 37.23894333 30.25 32.6875 C29.93336871 28.01718852 28.48316014 25.73035349 25.5 22.25 C22.44274332 19.7022861 19.29330509 19.86480294 15.5 19.875 C14.5409375 19.87242187 13.581875 19.86984375 12.59375 19.8671875 C9.88428848 19.89007028 9.88428848 19.89007028 7 21 C0.52066116 21.34710744 0.52066116 21.34710744 -3 19 C-5.56757972 18.9408781 -8.06473578 19.12981665 -10.625 19.3203125 C-13 19 -13 19 -14.78515625 17.18359375 C-16.42988272 14.22731691 -16.49582124 12.32908549 -16 9 C-14.125 7.125 -14.125 7.125 -12 6 C-11.34 6 -10.68 6 -10 6 C-9.896875 5.38125 -9.79375 4.7625 -9.6875 4.125 C-8.16154816 -0.5915784 -4.26064398 -0.52171151 0 0 Z " fill="#BCDFE0" transform="translate(941,204)"/>
<path d="M0 0 C0.83853516 -0.03738281 1.67707031 -0.07476562 2.54101562 -0.11328125 C8.92321776 -0.20296091 11.97110451 1.22148885 16.8125 5.375 C17.3796875 4.55773437 17.946875 3.74046875 18.53125 2.8984375 C21.33901114 0.09660825 23.70345476 -0.02977126 27.59375 -0.1484375 C29.83375279 -0.12457948 32.07359948 -0.07420356 34.3125 0 C35.44042969 0.01417969 36.56835938 0.02835937 37.73046875 0.04296875 C45.95420371 0.18895221 45.95420371 0.18895221 49.48632812 0.95458984 C51.95738535 1.59332098 51.95738535 1.59332098 54.8125 0.375 C70.09416519 -0.55768379 70.09416519 -0.55768379 76.8125 3.375 C77.34246582 2.88966797 77.87243164 2.40433594 78.41845703 1.90429688 C83.16024132 -1.12471973 89.22275916 -0.13605104 94.6875 -0.125 C96.58822266 -0.16753906 96.58822266 -0.16753906 98.52734375 -0.2109375 C108.92165294 -0.23279725 108.92165294 -0.23279725 112.65234375 2.6875 C114.8125 5.375 114.8125 5.375 115.5 8.875 C114.63553105 13.27593281 113.43902055 14.77336569 109.8125 17.375 C106.6328125 17.50390625 106.6328125 17.50390625 103.8125 17.375 C103.8439209 18.34324707 103.8439209 18.34324707 103.87597656 19.33105469 C103.95924205 22.26221068 104.01119206 25.19311777 104.0625 28.125 C104.09601563 29.14078125 104.12953125 30.1565625 104.1640625 31.203125 C104.26231556 38.67035773 104.26231556 38.67035773 102.109375 42.04296875 C99.46767825 43.57497316 97.85781197 43.94214224 94.8125 43.9375 C93.966875 43.95941406 93.12125 43.98132813 92.25 44.00390625 C89.8125 43.375 89.8125 43.375 87.515625 41.515625 C85.00790352 36.89129456 85.38205073 32.7295955 85.5625 27.5625 C85.58054687 26.58345703 85.59859375 25.60441406 85.6171875 24.59570312 C85.66417113 22.18779229 85.72984306 19.78190665 85.8125 17.375 C84.8225 17.375 83.8325 17.375 82.8125 17.375 C82.85375 18.4475 82.895 19.52 82.9375 20.625 C82.8239175 24.03247485 82.59976636 25.58239631 80.8125 28.375 C81.328125 28.890625 81.84375 29.40625 82.375 29.9375 C83.8125 32.375 83.8125 32.375 83.875 35.8125 C82.4994777 40.42454536 80.93164915 41.93402273 76.8125 44.375 C72.57542454 44.44805303 70.62058412 44.05876349 67.375 41.3125 C66.859375 40.673125 66.34375 40.03375 65.8125 39.375 C64.966875 40.2 64.12125 41.025 63.25 41.875 C60.59342794 44.09823052 59.84367242 44.37177527 56.1875 44.75 C53.598985 44.46238722 51.3143592 44.02363016 48.8125 43.375 C47.8225 43.87 47.8225 43.87 46.8125 44.375 C42.90215868 44.67142382 38.98275557 44.65307153 35.0625 44.6875 C33.43441406 44.73100586 33.43441406 44.73100586 31.7734375 44.77539062 C25.47172258 44.82546538 21.60601707 44.62379922 16.8125 40.375 C15.85601563 41.02339844 14.89953125 41.67179687 13.9140625 42.33984375 C9.38685614 44.91786791 5.30496713 45.00546636 0.1875 44.9375 C-0.64523437 44.96134766 -1.47796875 44.98519531 -2.3359375 45.00976562 C-6.7914104 44.99912357 -8.62052242 44.8269705 -12.2109375 41.96484375 C-16.32652108 36.57229056 -15.44671036 30.77533214 -15.48266602 24.25415039 C-15.49985449 22.08089761 -15.54373807 19.90917654 -15.58789062 17.73632812 C-15.59802026 16.3489695 -15.60653552 14.96159796 -15.61328125 13.57421875 C-15.62786377 12.31440186 -15.64244629 11.05458496 -15.6574707 9.7565918 C-15.10704573 5.7961054 -13.97548822 4.18180187 -11.1875 1.375 C-7.71243549 -0.36253226 -3.82988573 0.0633039 0 0 Z " fill="#FF2F9F" transform="translate(1011.1875,387.625)"/>
<path d="M0 0 C1.27920822 -0.00786278 1.27920822 -0.00786278 2.58425903 -0.0158844 C4.37761351 -0.02227027 6.17101006 -0.02101245 7.96435547 -0.01245117 C10.68143728 -0.00394966 13.39640685 -0.03273577 16.11328125 -0.06445312 C26.13922297 -0.10626892 34.96032945 -0.10193785 43.22265625 6.29296875 C47.74103706 11.85759041 50.41235484 16.69398186 51.1953125 23.87109375 C50.28650386 32.50477585 47.29393652 38.56730333 40.8203125 44.43359375 C34.54909166 48.32175067 28.56825605 48.5971692 21.3359375 48.63671875 C20.11339264 48.64526886 20.11339264 48.64526886 18.8661499 48.6539917 C17.14482916 48.66341311 15.42349062 48.66996428 13.70214844 48.67382812 C11.0927718 48.68351041 8.48419133 48.71455082 5.875 48.74609375 C4.19531713 48.7526273 2.51562868 48.75787639 0.8359375 48.76171875 C-0.31766266 48.78023895 -0.31766266 48.78023895 -1.49456787 48.7991333 C-10.01720421 48.76475388 -17.21920314 46.41379752 -23.44921875 40.51953125 C-27.60193597 35.5137728 -29.97746098 29.03977726 -29.5546875 22.5 C-28.19742329 15.02090866 -25.33635439 9.83645809 -19.5703125 4.90625 C-13.17263345 0.96519608 -7.35135269 -0.02689913 0 0 Z " fill="#FFEDF1" transform="translate(1789.1796875,146.56640625)"/>
<path d="M0 0 C1.98604388 -0.00964684 3.97194527 -0.04082268 5.95776367 -0.07226562 C14.3602959 -0.10640491 20.86322268 0.07241408 27.63549805 5.49023438 C31.393115 10.21409569 33.13495471 14.19378029 32.82299805 20.24023438 C32.12216461 25.24509922 30.3785949 28.66471821 26.82299805 32.24023438 C20.12507994 37.14115006 13.10623875 36.45767185 5.08837891 36.48046875 C3.02749963 36.49015447 0.96762718 36.52119515 -1.09301758 36.55273438 C-9.55845247 36.58598105 -15.23394784 36.46636955 -21.92700195 30.99023438 C-25.7976928 26.25939001 -27.49051181 22.28560179 -27.11450195 16.17773438 C-26.46170958 11.64941673 -25.30352497 8.69586508 -22.17700195 5.24023438 C-14.94308467 0.11552304 -8.58843251 0.02521992 0 0 Z " fill="#FFEBEF" transform="translate(77.177001953125,96.759765625)"/>
<path d="M0 0 C1.1377207 3.41316211 0.89973307 3.77386724 -0.5 6.875 C-1.94564863 10.41457018 -1.93490171 12.26039317 -1 16 C-3.01589157 21.32238039 -7.86595754 24.57021281 -12.91796875 26.875 C-14.21159053 27.34443801 -15.51299855 27.79281956 -16.8203125 28.22265625 C-19.37933558 29.13528276 -21.74653937 30.30782068 -24.1875 31.5 C-33.74548227 35.86371329 -42.95071453 37.38751942 -53.41796875 37.0078125 C-55.98776804 36.80641826 -55.98776804 36.80641826 -58 38 C-63.17612405 38.51592086 -67.63098164 38.59738983 -72.4375 36.5 C-75.16601755 33.83803166 -76.44982261 31.59571754 -77.84765625 28.09765625 C-79.4275462 25.22172099 -81.62797848 23.23959339 -84 21 C-83.36312256 20.93530518 -82.72624512 20.87061035 -82.07006836 20.80395508 C-66.45010889 19.17673047 -51.24088239 16.8102206 -36 13 C-35.22720703 12.80680176 -34.45441406 12.61360352 -33.65820312 12.41455078 C-21.96324837 9.40794262 -11.02725702 4.87813895 0 0 Z " fill="#84AAB7" transform="translate(1006,276)"/>
<path d="M0 0 C1.04285156 0.01289063 2.08570313 0.02578125 3.16015625 0.0390625 C5.9375 0.375 5.9375 0.375 8.9375 2.375 C12.64294587 2.57350603 15.40755387 2.55164871 18.9375 1.375 C30.3217658 0.45861947 30.3217658 0.45861947 34.9375 4.375 C38.62273239 7.65076213 39.7799755 9.70524034 40.25 14.6875 C39.77203508 20.32748602 37.18739339 23.0641362 33.375 27.0625 C24.72276108 33.70159422 12.3103239 33.27437779 1.9375 32.375 C-4.53567644 31.33509992 -8.8686388 29.65114796 -13.0625 24.375 C-15.09448138 20.31103724 -14.20212013 15.96339911 -13.1875 11.6875 C-10.74786694 4.50413598 -8.28636141 -0.22589833 0 0 Z " fill="#F7F2EE" transform="translate(932.0625,221.625)"/>
<path d="M0 0 C1.20591797 -0.00708984 2.41183594 -0.01417969 3.65429688 -0.02148438 C11.36873112 0.03389257 16.40103408 0.60346515 22.25 6.0625 C25.14733132 9.86289562 25.82028345 13.72447878 25.4375 18.4375 C24.16362715 23.45337435 22.47702265 25.74734522 18.125 28.63671875 C12.2813114 31.36961778 6.20525037 31.01984472 -0.125 30.9375 C-1.91454102 30.96070313 -1.91454102 30.96070313 -3.74023438 30.984375 C-10.51757142 30.95423676 -15.15485106 30.68100229 -20.5625 26.4375 C-23.40145714 22.98663731 -24.44787524 19.25420139 -25.0625 14.875 C-24.21886247 9.07499197 -22.3901692 5.85788916 -17.7578125 2.2578125 C-12.25466614 -0.72350647 -6.08722188 -0.1011817 0 0 Z " fill="#FFEFF3" transform="translate(174.5625,246.5625)"/>
<path d="M0 0 C3.00508947 -0.33223599 5.7459105 -0.46364318 8.75 -0.4375 C9.54921875 -0.45748047 10.3484375 -0.47746094 11.171875 -0.49804688 C16.58617257 -0.49359433 19.73301929 0.38091973 24 4 C26.2777513 7.41662695 26.19525983 8.57439461 26.0625 12.5625 C25.83191303 16.43090293 25.83191303 16.43090293 27 20 C27.37838031 25.01353911 27.13135639 28.00482115 24 32 C20.9604433 35.20513567 18.74235483 36.27005181 14.42578125 36.49609375 C12.72124278 36.49741407 11.01657406 36.47730881 9.3125 36.4375 C8.44560547 36.44458984 7.57871094 36.45167969 6.68554688 36.45898438 C1.92347392 36.41080776 1.92347392 36.41080776 0 36 C-2.4286032 32.3570952 -2.25761901 30.58696159 -2.265625 26.25 C-2.26753845 25.59547852 -2.2694519 24.94095703 -2.27142334 24.26660156 C-2.27278245 22.88476171 -2.26910513 21.50290897 -2.26074219 20.12109375 C-2.25003809 18.0075204 -2.26064601 15.89479695 -2.2734375 13.78125 C-2.27211586 12.43749813 -2.26955336 11.09374678 -2.265625 9.75 C-2.26336914 8.52796875 -2.26111328 7.3059375 -2.25878906 6.046875 C-2 3 -2 3 0 0 Z " fill="#FFECF4" transform="translate(1002,392)"/>
<path d="M0 0 C1.04897461 -0.0299707 1.04897461 -0.0299707 2.11914062 -0.06054688 C8.10177177 -0.0549504 11.60159952 2.02993748 16 6.125 C17.85493489 9.73724164 18.35459122 13.39098651 18.1875 17.4375 C17.2273183 19.12741979 16.23394066 20.79959288 15.1875 22.4375 C15.85030383 24.86778072 16.3885972 26.6385972 18.1875 28.4375 C18.5 30.8125 18.5 30.8125 18.1875 33.4375 C16.5 35.3125 16.5 35.3125 14.1875 36.4375 C11.33220518 36.51071269 9.85012275 36.06029297 7.7578125 34.09375 C4.1875 29.97881356 4.1875 29.97881356 4.1875 27.4375 C2.8675 27.4375 1.5475 27.4375 0.1875 27.4375 C0.22875 28.55125 0.27 29.665 0.3125 30.8125 C0.1875 34.4375 0.1875 34.4375 -1.8125 36.4375 C-6.97816847 36.9870392 -6.97816847 36.9870392 -9.47900391 35.33984375 C-11.4747593 32.4927317 -11.20139584 30.13340281 -11.2109375 26.6875 C-11.21380768 26.03297852 -11.21667786 25.37845703 -11.21963501 24.70410156 C-11.22167368 23.32225681 -11.21615746 21.94038307 -11.20361328 20.55859375 C-11.18755436 18.4446555 -11.20346601 16.33262887 -11.22265625 14.21875 C-11.22067378 12.87499578 -11.21683002 11.53124276 -11.2109375 10.1875 C-11.20755371 8.96546875 -11.20416992 7.7434375 -11.20068359 6.484375 C-10.8125 3.4375 -10.8125 3.4375 -9.51147461 1.54272461 C-6.60079783 -0.35074195 -3.35574248 -0.03346615 0 0 Z " fill="#FFE9F2" transform="translate(1072.8125,391.5625)"/>
<path d="M0 0 C10.26446667 0.27371911 18.85528482 0.90352322 27.625 6.75 C29.68431363 10.11978594 29.69757435 13.22575564 29 17 C24.66694036 26.04290707 14.75394869 32.63129971 6 37 C5.34 37 4.68 37 4 37 C3.505 37.99 3.505 37.99 3 39 C-26.94002381 53.72011233 -76.0847767 67.95430488 -109 57 C-112.44197838 55.02404945 -115.34296748 52.95225836 -118 50 C-117.67 49.34 -117.34 48.68 -117 48 C-116.443125 48.78375 -115.88625 49.5675 -115.3125 50.375 C-107.31476623 58.04673919 -89.41033889 55.32576032 -79.25390625 55.19921875 C-67.80408089 55.14437848 -67.80408089 55.14437848 -57 52 C-57 51.34 -57 50.68 -57 50 C-56.41323486 49.88519287 -55.82646973 49.77038574 -55.22192383 49.65209961 C-29.76407295 44.59315186 0.6552552 37.65515728 20 19 C21.50883766 16.55495584 21.99041951 15.3832197 22.0625 12.5 C20.79103438 9.50831618 19.25009622 8.33036953 16.38671875 6.84765625 C11.43925568 5.09053761 6.19428065 4.59363207 1 4 C0.505 2.02 0.505 2.02 0 0 Z " fill="#F4D3D2" transform="translate(1004,238)"/>
<path d="M0 0 C1.06734375 -0.00257813 2.1346875 -0.00515625 3.234375 -0.0078125 C4.91273437 0.00378906 4.91273437 0.00378906 6.625 0.015625 C7.74390625 0.00789063 8.8628125 0.00015625 10.015625 -0.0078125 C11.08296875 -0.00523437 12.1503125 -0.00265625 13.25 0 C14.23226563 0.00225586 15.21453125 0.00451172 16.2265625 0.00683594 C18.625 0.265625 18.625 0.265625 20.625 2.265625 C20.875 5.765625 20.875 5.765625 20.625 9.265625 C18.625 11.265625 18.625 11.265625 15.1484375 11.4609375 C13.76549032 11.44763993 12.38261346 11.42378732 11 11.390625 C10.29359375 11.38160156 9.5871875 11.37257813 8.859375 11.36328125 C7.11443902 11.33970103 5.36967705 11.30382961 3.625 11.265625 C3.625 11.925625 3.625 12.585625 3.625 13.265625 C4.32367187 13.25402344 5.02234375 13.24242187 5.7421875 13.23046875 C6.65226562 13.22144531 7.56234375 13.21242188 8.5 13.203125 C9.85738281 13.18572266 9.85738281 13.18572266 11.2421875 13.16796875 C13.625 13.265625 13.625 13.265625 15.625 14.265625 C15.75 17.640625 15.75 17.640625 15.625 21.265625 C13.625 23.265625 13.625 23.265625 11.2421875 23.4609375 C10.33726563 23.43773437 9.43234375 23.41453125 8.5 23.390625 C7.13488281 23.36355469 7.13488281 23.36355469 5.7421875 23.3359375 C5.04351563 23.31273437 4.34484375 23.28953125 3.625 23.265625 C3.625 23.925625 3.625 24.585625 3.625 25.265625 C4.68460938 25.24242187 5.74421875 25.21921875 6.8359375 25.1953125 C8.2239513 25.17655556 9.6119727 25.15835528 11 25.140625 C12.04800781 25.11548828 12.04800781 25.11548828 13.1171875 25.08984375 C14.95397486 25.07218233 16.79101963 25.16259239 18.625 25.265625 C20.625 27.265625 20.625 27.265625 20.875 30.765625 C20.625 34.265625 20.625 34.265625 18.625 36.265625 C16.2265625 36.52441406 16.2265625 36.52441406 13.25 36.53125 C12.18265625 36.53382813 11.1153125 36.53640625 10.015625 36.5390625 C8.33726563 36.52746094 8.33726563 36.52746094 6.625 36.515625 C5.50609375 36.52335937 4.3871875 36.53109375 3.234375 36.5390625 C2.16703125 36.53648437 1.0996875 36.53390625 0 36.53125 C-0.98226563 36.52899414 -1.96453125 36.52673828 -2.9765625 36.52441406 C-5.375 36.265625 -5.375 36.265625 -7.375 34.265625 C-7.63378906 31.1328125 -7.63378906 31.1328125 -7.640625 27.140625 C-7.64253845 26.4379248 -7.6444519 25.73522461 -7.64642334 25.01123047 C-7.64778475 23.52506146 -7.64409132 22.03888055 -7.63574219 20.55273438 C-7.62504154 18.27446854 -7.63563839 15.99699123 -7.6484375 13.71875 C-7.6471159 12.27603992 -7.64455349 10.83333034 -7.640625 9.390625 C-7.63836914 8.07320313 -7.63611328 6.75578125 -7.63378906 5.3984375 C-7.18521331 -0.03186825 -4.83017424 0.01109292 0 0 Z " fill="#FFECF3" transform="translate(1039.375,391.734375)"/>
<path d="M0 0 C3.5 -0.3125 3.5 -0.3125 7 0 C9.3395729 2.3395729 9.26127164 2.82316985 9.34375 5.9921875 C9.37339844 6.77980469 9.40304687 7.56742187 9.43359375 8.37890625 C9.45550781 9.20261719 9.47742188 10.02632813 9.5 10.875 C9.54357819 12.49764656 9.59538854 14.12009724 9.65625 15.7421875 C9.67494141 16.4626123 9.69363281 17.18303711 9.71289062 17.92529297 C10.03880576 20.28041785 10.83778664 21.94060896 12 24 C13.98 24 15.96 24 18 24 C18.01981934 23.37955811 18.03963867 22.75911621 18.06005859 22.11987305 C18.15531845 19.30865463 18.26499302 16.49817834 18.375 13.6875 C18.42140625 12.22280273 18.42140625 12.22280273 18.46875 10.72851562 C18.50742187 9.79072266 18.54609375 8.85292969 18.5859375 7.88671875 C18.6173584 7.02264404 18.6487793 6.15856934 18.68115234 5.26831055 C19 3 19 3 21 0 C24.5 -0.3125 24.5 -0.3125 28 0 C31.39498167 3.39498167 30.41068179 8.01822782 30.4375 12.625 C30.47037109 13.59824219 30.50324219 14.57148438 30.53710938 15.57421875 C30.58717369 22.33745319 29.40175672 26.79001788 25 32 C21.57635184 35.11240742 19.04113066 36.24701633 14.5 36.4375 C9.1047843 36.16547232 5.54706958 34.59004374 1.75 30.6875 C-2.11436978 24.75293212 -2.31298805 19.17294845 -2.25 12.3125 C-2.26160156 11.03149414 -2.26160156 11.03149414 -2.2734375 9.72460938 C-2.27085937 8.90412109 -2.26828125 8.08363281 -2.265625 7.23828125 C-2.26336914 6.49618408 -2.26111328 5.75408691 -2.25878906 4.98950195 C-2 3 -2 3 0 0 Z " fill="#FFEFF6" transform="translate(861,392)"/>
<path d="M0 0 C0.75152344 -0.02449219 1.50304687 -0.04898437 2.27734375 -0.07421875 C7.57344741 -0.10194704 10.57375486 0.85360987 14.75 4.375 C17.66383393 7.39995471 18.20329345 9.58144035 18.25 13.75 C18.14948632 17.51423749 17.87665318 19.96668353 15.5 22.9375 C10.38885788 27.46783051 7.44624867 27.59820829 0.75 27.375 C0.79125 28.48875 0.8325 29.6025 0.875 30.75 C0.75 34.375 0.75 34.375 -1.25 36.375 C-4.75 36.6875 -4.75 36.6875 -8.25 36.375 C-10.71466096 32.67800856 -10.50779399 30.78079069 -10.515625 26.37109375 C-10.51753845 25.69200455 -10.5194519 25.01291534 -10.52142334 24.31324768 C-10.52278247 22.88013335 -10.51910496 21.44700659 -10.51074219 20.01391602 C-10.50002167 17.81694015 -10.51065453 15.62077886 -10.5234375 13.42382812 C-10.52211618 12.03124819 -10.51955436 10.63866877 -10.515625 9.24609375 C-10.51336914 7.97693115 -10.51111328 6.70776855 -10.50878906 5.40014648 C-9.95856036 -1.03181941 -5.22706437 0.00878498 0 0 Z " fill="#FFF0F6" transform="translate(904.25,391.625)"/>
<path d="M0 0 C0.72380859 0.00322266 1.44761719 0.00644531 2.19335938 0.00976562 C2.90556641 -0.00634766 3.61777344 -0.02246094 4.3515625 -0.0390625 C10.26340321 -0.04453136 13.31338178 1.48450777 17.63085938 5.32226562 C20.57580951 8.68792293 20.67592634 11.96030519 20.58789062 16.33007812 C20.26927053 19.39604509 19.38930592 20.98987609 17.38085938 23.32226562 C12.12046931 27.13862705 8.81512353 27.77379293 2.38085938 27.32226562 C2.42210937 28.43601562 2.46335937 29.54976563 2.50585938 30.69726562 C2.38085938 34.32226562 2.38085938 34.32226562 0.38085938 36.32226562 C-2.61914062 36.57226562 -2.61914062 36.57226562 -5.61914062 36.32226562 C-8.52355721 33.41784904 -7.87781799 31.25468717 -7.88476562 27.19726562 C-7.88667908 26.49456543 -7.88859253 25.79186523 -7.89056396 25.06787109 C-7.89192538 23.58170209 -7.88823195 22.09552118 -7.87988281 20.609375 C-7.86918216 18.33110917 -7.87977902 16.05363186 -7.89257812 13.77539062 C-7.89125652 12.33268055 -7.88869411 10.88997096 -7.88476562 9.44726562 C-7.88250977 8.12984375 -7.88025391 6.81242187 -7.87792969 5.45507812 C-7.42424699 -0.03705056 -4.96723693 0.05082754 0 0 Z " fill="#FFF1F6" transform="translate(932.619140625,391.677734375)"/>
<path d="M0 0 C1.06734375 -0.00257813 2.1346875 -0.00515625 3.234375 -0.0078125 C4.91273438 0.00378906 4.91273438 0.00378906 6.625 0.015625 C7.74390625 0.00789063 8.8628125 0.00015625 10.015625 -0.0078125 C11.08296875 -0.00523437 12.1503125 -0.00265625 13.25 0 C14.23226562 0.00225586 15.21453125 0.00451172 16.2265625 0.00683594 C18.625 0.265625 18.625 0.265625 20.625 2.265625 C20.875 5.765625 20.875 5.765625 20.625 9.265625 C18.625 11.265625 18.625 11.265625 15.1484375 11.4609375 C13.76549032 11.44763993 12.38261346 11.42378732 11 11.390625 C10.29359375 11.38160156 9.5871875 11.37257813 8.859375 11.36328125 C7.11443902 11.33970103 5.36967705 11.30382961 3.625 11.265625 C3.625 11.925625 3.625 12.585625 3.625 13.265625 C4.39585937 13.23082031 5.16671875 13.19601562 5.9609375 13.16015625 C6.96382812 13.13308594 7.96671875 13.10601562 9 13.078125 C10.49660156 13.02591797 10.49660156 13.02591797 12.0234375 12.97265625 C12.88195312 13.06933594 13.74046875 13.16601562 14.625 13.265625 C16.625 16.265625 16.625 16.265625 16.375 18.828125 C15.625 21.265625 15.625 21.265625 13.625 23.265625 C11.2421875 23.4609375 11.2421875 23.4609375 8.5 23.390625 C7.13488281 23.36355469 7.13488281 23.36355469 5.7421875 23.3359375 C5.04351563 23.31273437 4.34484375 23.28953125 3.625 23.265625 C3.64820313 23.95269531 3.67140625 24.63976562 3.6953125 25.34765625 C3.72238281 26.69923828 3.72238281 26.69923828 3.75 28.078125 C3.77320313 28.97144531 3.79640625 29.86476563 3.8203125 30.78515625 C3.625 33.265625 3.625 33.265625 1.625 36.265625 C-1.875 36.578125 -1.875 36.578125 -5.375 36.265625 C-8.27941659 33.36120841 -7.63367736 31.19804655 -7.640625 27.140625 C-7.64253845 26.4379248 -7.6444519 25.73522461 -7.64642334 25.01123047 C-7.64778475 23.52506146 -7.64409132 22.03888055 -7.63574219 20.55273438 C-7.62504154 18.27446854 -7.63563839 15.99699123 -7.6484375 13.71875 C-7.6471159 12.27603992 -7.64455349 10.83333034 -7.640625 9.390625 C-7.63836914 8.07320313 -7.63611328 6.75578125 -7.63378906 5.3984375 C-7.18521331 -0.03186825 -4.83017424 0.01109292 0 0 Z " fill="#FFF3F8" transform="translate(806.375,391.734375)"/>
<path d="M0 0 C3.34044066 1.10340348 4.02740651 2.42008699 5.77734375 5.41796875 C6.66864681 6.92542327 7.59635633 8.4133096 8.58984375 9.85546875 C9.24984375 9.85546875 9.90984375 9.85546875 10.58984375 9.85546875 C12.17459717 7.61417462 13.54883503 5.27747025 14.95703125 2.921875 C16.58984375 0.85546875 16.58984375 0.85546875 18.61328125 -0.05078125 C20.58984375 -0.14453125 20.58984375 -0.14453125 23.33984375 1.79296875 C24.45359375 2.81390625 24.45359375 2.81390625 25.58984375 3.85546875 C25.05089916 8.42807677 23.18932447 11.17193136 20.58984375 14.91796875 C16.97346574 20.37199789 15.72364565 24.83876118 15.8203125 31.39453125 C15.58984375 33.85546875 15.58984375 33.85546875 14.26953125 35.671875 C11.70441367 37.47938809 9.63421478 37.17933801 6.58984375 36.85546875 C4.58984375 34.85546875 4.58984375 34.85546875 4.52734375 32.5625 C4.54796875 31.60730469 4.56859375 30.65210938 4.58984375 29.66796875 C4.20202189 22.68717531 1.14071785 18.40225455 -2.9921875 13.02075195 C-6.43406963 8.43178124 -6.43406963 8.43178124 -6.29296875 5.03125 C-4.88977708 1.57294133 -3.95091355 -0.23692674 0 0 Z " fill="#FFEDF4" transform="translate(959.41015625,391.14453125)"/>
<path d="M0 0 C27.39 0 54.78 0 83 0 C83 2.31 83 4.62 83 7 C55.61 7 28.22 7 0 7 C0 4.69 0 2.38 0 0 Z " fill="#FFA911" transform="translate(957,651)"/>
<path d="M0 0 C1.26199219 -0.01224609 2.52398438 -0.02449219 3.82421875 -0.03710938 C5.02691406 -0.03904297 6.22960938 -0.04097656 7.46875 -0.04296875 C9.13067383 -0.04913208 9.13067383 -0.04913208 10.82617188 -0.05541992 C13.5 0.1875 13.5 0.1875 15.5 2.1875 C15.75 5.1875 15.75 5.1875 15.5 8.1875 C13.5 10.1875 13.5 10.1875 11.5546875 10.3828125 C9.53645833 10.31770833 7.51822917 10.25260417 5.5 10.1875 C5.51571045 10.86852783 5.5314209 11.54955566 5.54760742 12.2512207 C5.60993222 15.33406281 5.64898258 18.41677244 5.6875 21.5 C5.71263672 22.57185547 5.73777344 23.64371094 5.76367188 24.74804688 C5.77333984 25.77607422 5.78300781 26.80410156 5.79296875 27.86328125 C5.8086792 28.81114502 5.82438965 29.75900879 5.84057617 30.7355957 C5.5 33.1875 5.5 33.1875 4.1730957 35.00073242 C1.61385917 36.8160613 -0.45714523 36.51120795 -3.5 36.1875 C-5.5 34.1875 -5.5 34.1875 -5.72705078 31.75732422 C-5.71657715 30.7623291 -5.70610352 29.76733398 -5.6953125 28.7421875 C-5.68886719 27.66582031 -5.68242188 26.58945312 -5.67578125 25.48046875 C-5.65902344 24.35253906 -5.64226562 23.22460938 -5.625 22.0625 C-5.61597656 20.92683594 -5.60695313 19.79117187 -5.59765625 18.62109375 C-5.57403098 15.80968701 -5.54109013 12.99869702 -5.5 10.1875 C-7.1396875 10.249375 -7.1396875 10.249375 -8.8125 10.3125 C-12.5 10.1875 -12.5 10.1875 -15.5 8.1875 C-15.6875 4.5625 -15.6875 4.5625 -15.5 1.1875 C-11.0372169 -1.04389155 -4.90089668 0.00250301 0 0 Z " fill="#FFE4F0" transform="translate(1106.5,391.8125)"/>
<path d="M0 0 C5.35300946 2.49964318 9.86513346 5.68298081 12.5 11.0625 C13.03424055 14.20116325 12.92969742 15.97374004 12 19 C2.47708118 28.35458439 -17.29139495 33.14279605 -30 36 C-29.67 35.01 -29.34 34.02 -29 33 C-26.525 32.505 -26.525 32.505 -24 32 C-24 31.34 -24 30.68 -24 30 C-23.0925 30.0825 -22.185 30.165 -21.25 30.25 C-17.89958592 30.31024799 -17.89958592 30.31024799 -15.625 28 C-15.08875 27.34 -14.5525 26.68 -14 26 C-14.28875 25.13375 -14.5775 24.2675 -14.875 23.375 C-15.91666667 20.25 -16.95833333 17.125 -18 14 C-16.375 11.9375 -16.375 11.9375 -14 10 C-10.75 10.25 -10.75 10.25 -8 11 C-7.67 9.68 -7.34 8.36 -7 7 C-5.35 7 -3.7 7 -2 7 C-1.855625 6.21625 -1.71125 5.4325 -1.5625 4.625 C-1 2 -1 2 0 0 Z " fill="#A6CB9D" transform="translate(998,244)"/>
<path d="M0 0 C3.5 0.25 3.5 0.25 5.5 2.25 C5.72705078 4.68017578 5.72705078 4.68017578 5.6953125 7.6953125 C5.68564453 9.30986328 5.68564453 9.30986328 5.67578125 10.95703125 C5.65902344 12.08496094 5.64226563 13.21289062 5.625 14.375 C5.61597656 15.51066406 5.60695313 16.64632813 5.59765625 17.81640625 C5.57403098 20.62781299 5.54109013 23.43880298 5.5 26.25 C6.41523437 26.22679687 7.33046875 26.20359375 8.2734375 26.1796875 C9.46195313 26.16164063 10.65046875 26.14359375 11.875 26.125 C13.05835938 26.10179687 14.24171875 26.07859375 15.4609375 26.0546875 C18.5 26.25 18.5 26.25 20.5 28.25 C20.75 31.25 20.75 31.25 20.5 34.25 C17.50628497 37.24371503 14.69505771 36.54256348 10.6015625 36.57226562 C9.57804688 36.56904297 8.55453125 36.56582031 7.5 36.5625 C5.96472656 36.58666992 5.96472656 36.58666992 4.3984375 36.61132812 C2.93277344 36.61229492 2.93277344 36.61229492 1.4375 36.61328125 C0.53902344 36.61626221 -0.35945312 36.61924316 -1.28515625 36.62231445 C-2.38150391 36.4380188 -2.38150391 36.4380188 -3.5 36.25 C-5.96466096 32.55300856 -5.75779399 30.65579069 -5.765625 26.24609375 C-5.76753845 25.56700455 -5.7694519 24.88791534 -5.77142334 24.18824768 C-5.77278247 22.75513335 -5.76910496 21.32200659 -5.76074219 19.88891602 C-5.75002167 17.69194015 -5.76065453 15.49577886 -5.7734375 13.29882812 C-5.77211618 11.90624819 -5.76955436 10.51366877 -5.765625 9.12109375 C-5.76336914 7.85193115 -5.76111328 6.58276855 -5.75878906 5.27514648 C-5.37576744 0.79776831 -4.43955526 0.31711109 0 0 Z " fill="#FFF1F7" transform="translate(836.5,391.75)"/>
<path d="M0 0 C0.99 0 1.98 0 3 0 C3.67154933 1.28913487 4.33708859 2.58140204 5 3.875 C5.37125 4.59429688 5.7425 5.31359375 6.125 6.0546875 C7 8 7 8 7 10 C10.3 10 13.6 10 17 10 C17 11.32 17 12.64 17 14 C15.989375 14.66 14.97875 15.32 13.9375 16 C12.17881545 17.16525883 12.17881545 17.16525883 11 19 C10.75904943 23.09615964 11.29266784 26.96820667 12 31 C7.25 29.1484375 7.25 29.1484375 5 27.8125 C2.25084612 26.69565624 0.80753518 27.10980592 -2 28 C-3.68029994 28.97691857 -5.34928604 29.97388051 -7 31 C-7.66 31 -8.32 31 -9 31 C-8.48041715 26.62065881 -7.94324258 22.31196609 -7 18 C-7.5775 17.731875 -8.155 17.46375 -8.75 17.1875 C-11.0325868 15.98280141 -12.9737942 14.59201885 -15 13 C-14.67 12.01 -14.34 11.02 -14 10 C-10.7 9.67 -7.4 9.34 -4 9 C-2.68 6.03 -1.36 3.06 0 0 Z " fill="#FDD946" transform="translate(1011,594)"/>
<path d="M0 0 C0.99 0 1.98 0 3 0 C4.32 2.97 5.64 5.94 7 9 C10.3 9.33 13.6 9.66 17 10 C17 11.32 17 12.64 17 14 C14 16.25 14 16.25 11 18 C11.33 22.29 11.66 26.58 12 31 C6 29 6 29 3 27 C-1.00586131 27.31625221 -3.63682532 28.9093779 -7 31 C-7.66 31 -8.32 31 -9 31 C-8.76990234 29.80503906 -8.76990234 29.80503906 -8.53515625 28.5859375 C-7.40027035 22.43660866 -7.40027035 22.43660866 -9.4921875 16.8671875 C-11.26333046 15.39479154 -12.9992832 14.13756466 -15 13 C-14.67 12.01 -14.34 11.02 -14 10 C-10.7 9.67 -7.4 9.34 -4 9 C-2.68 6.03 -1.36 3.06 0 0 Z " fill="#FDDA49" transform="translate(906,594)"/>
<path d="M0 0 C0.99 0.33 1.98 0.66 3 1 C3.81640625 2.8125 3.81640625 2.8125 4.5625 5 C5.46018678 7.22750816 5.46018678 7.22750816 7 9 C10.34754735 10.0121718 13.51920545 10.1062838 17 10 C16.8125 11.75 16.8125 11.75 16 14 C15.16082031 14.60328125 14.32164062 15.2065625 13.45703125 15.828125 C10.67311968 17.8206295 10.67311968 17.8206295 10.51171875 21.234375 C10.56972656 22.39453125 10.62773438 23.5546875 10.6875 24.75 C10.73261719 25.92046875 10.77773438 27.0909375 10.82421875 28.296875 C10.88222656 29.18890625 10.94023438 30.0809375 11 31 C8.54994206 30.04338759 6.21945542 29.12635312 3.9375 27.8125 C1.40385734 26.75000469 0.56827522 27.0460692 -2 28 C-4.35137267 28.96492615 -6.67487525 29.97157944 -9 31 C-8.93039062 30.11957031 -8.86078125 29.23914063 -8.7890625 28.33203125 C-8.1842346 21.90834581 -8.1842346 21.90834581 -10.3359375 16.12890625 C-11.83110347 15.0022671 -13.41244457 13.99222215 -15 13 C-15 12.01 -15 11.02 -15 10 C-14.33613281 10.03222656 -13.67226563 10.06445312 -12.98828125 10.09765625 C-10.08862415 10.05955857 -7.7692523 9.88785188 -5 9 C-2.65113519 6.26395967 -1.28653153 3.3517532 0 0 Z " fill="#FDDA49" transform="translate(959,594)"/>
<path d="M0 0 C0.33 0 0.66 0 1 0 C1.46378072 5.79725898 0.7346093 8.53668644 -3 13 C-8.62884647 18.69763075 -14.81677435 23.41517661 -22 27 C-22.66 27 -23.32 27 -24 27 C-24.33 27.66 -24.66 28.32 -25 29 C-54.94002381 43.72011233 -104.0847767 57.95430488 -137 47 C-140.44197838 45.02404945 -143.34296748 42.95225836 -146 40 C-145.67 39.34 -145.34 38.68 -145 38 C-144.278125 38.804375 -143.55625 39.60875 -142.8125 40.4375 C-139.97484311 43.02292072 -138.72833853 43.68042813 -135 44 C-135 44.66 -135 45.32 -135 46 C-129.52312505 46.04992943 -124.04638646 46.0859669 -118.56933594 46.10986328 C-116.7112395 46.11983921 -114.85315842 46.13342478 -112.99511719 46.15087891 C-95.14795846 46.4172962 -95.14795846 46.4172962 -78 42 C-75.84094212 41.65651352 -73.67253294 41.36916081 -71.5 41.125 C-63.00185952 39.99250909 -54.89986735 37.81869066 -47.0625 34.3125 C-44.00306644 33.00131419 -41.29259058 32.40153544 -38 32 C-38 31.34 -38 30.68 -38 30 C-37.030625 29.5875 -36.06125 29.175 -35.0625 28.75 C-34.41796875 28.4715625 -33.7734375 28.193125 -33.109375 27.90625 C-31.72823158 27.31286987 -30.34289572 26.72913259 -28.953125 26.15625 C-12.83995549 19.4186767 -12.83995549 19.4186767 -1.9140625 6.55859375 C-1.17229276 4.38432373 -0.53187534 2.23387643 0 0 Z " fill="#DCAFB0" transform="translate(1032,248)"/>
<path d="M0 0 C7.47071785 -0.40021703 12.89172932 0.73355263 19 5.1875 C19.66 5.785625 20.32 6.38375 21 7 C20.53798437 11.96666807 19.36794139 14.35139683 16 18 C13.76148709 19.74411104 11.40892316 21.2532423 9 22.75 C8.38382813 23.14832031 7.76765625 23.54664063 7.1328125 23.95703125 C4.16599834 25.83516468 1.50867711 27.47369843 -2 28 C-0.625 26.5 -0.625 26.5 1 25 C1.66 25 2.32 25 3 25 C4.47788629 17.73372573 3.3421683 12.79482842 0.91015625 5.8203125 C0 3 0 3 0 0 Z " fill="#B4D5E0" transform="translate(1006,242)"/>
<path d="M0 0 C0 -0.66 0 -1.32 0 -2 C0.99 -1.67 1.98 -1.34 3 -1 C4.22482942 3.40938592 4.22482942 3.40938592 3.24609375 5.98046875 C-0.22289175 11.60261767 -6.65290853 14.78762016 -12.8203125 16.6015625 C-16.09968959 17.20101853 -18.80114264 16.84867644 -22 16 C-24 14 -24 14 -24.4375 11.5625 C-24 9 -24 9 -21.9375 7.5 C-20.968125 7.005 -19.99875 6.51 -19 6 C-17.82130256 5.18377216 -16.65511416 4.3492743 -15.5 3.5 C-14.901875 3.07589844 -14.30375 2.65179688 -13.6875 2.21484375 C-12.26957509 1.1940691 -10.88096434 0.13274736 -9.5 -0.9375 C-5.86850583 -2.48088502 -3.58721731 -1.33641429 0 0 Z " fill="#D4ABAE" transform="translate(1001,288)"/>
<path d="M0 0 C0 0.99 0 1.98 0 3 C-0.66 3 -1.32 3 -2 3 C-2 3.66 -2 4.32 -2 5 C-2.928125 5.12375 -2.928125 5.12375 -3.875 5.25 C-6.1196958 5.81367219 -6.1196958 5.81367219 -7.25 7.75 C-8.15029721 10.45089163 -8.50626111 12.17940236 -8 15 C-1.45494665 20.23604268 7.0124865 19.1917922 14.9375 19.1875 C16.15139404 19.18814453 17.36528809 19.18878906 18.6159668 19.18945312 C25.99901483 19.14589824 33.03593354 18.80500075 40.30078125 17.4375 C43.23994492 16.96110878 46.02757926 16.92975077 49 17 C49 17.66 49 18.32 49 19 C47.4176994 19.33820166 45.83410625 19.67035939 44.25 20 C43.36828125 20.185625 42.4865625 20.37125 41.578125 20.5625 C39 21 39 21 35 21 C35 21.66 35 22.32 35 23 C27.5054547 23.99180749 20.11825111 24.21662286 12.5625 24.25 C11.39912109 24.270625 10.23574219 24.29125 9.03710938 24.3125 C-6.74228267 24.38353834 -6.74228267 24.38353834 -12.76342773 19.59863281 C-14 18 -14 18 -14.125 14.75 C-12.00376125 7.67920418 -6.10179911 3.72060921 0 0 Z " fill="#CAE7EF" transform="translate(906,267)"/>
<path d="M0 0 C1.46130393 1.79668516 2.47896614 3.49054234 3.4921875 5.5703125 C3.81316406 6.21613281 4.13414062 6.86195313 4.46484375 7.52734375 C5.62258262 10.20373603 6.50754679 12.99139036 7.4296875 15.7578125 C0.1696875 15.7578125 -7.0903125 15.7578125 -14.5703125 15.7578125 C-15.57528102 12.74290693 -15.67366553 10.71599558 -15.6328125 7.5703125 C-15.62378906 6.66925781 -15.61476563 5.76820313 -15.60546875 4.83984375 C-15.59386719 4.15277344 -15.58226562 3.46570313 -15.5703125 2.7578125 C-12.55999506 1.82357605 -11.70380982 1.71331339 -8.5703125 2.7578125 C-8.2403125 1.7678125 -7.9103125 0.7778125 -7.5703125 -0.2421875 C-2.02098515 -1.59868974 -2.02098515 -1.59868974 0 0 Z " fill="#B9DEAE" transform="translate(923.5703125,271.2421875)"/>
<path d="M0 0 C8 0 8 0 10.75 1.125 C13.007744 2.29174986 13.007744 2.29174986 15.3125 1.125 C15.869375 0.75375 16.42625 0.3825 17 0 C17.33 1.65 17.66 3.3 18 5 C18.9590625 5.2165625 18.9590625 5.2165625 19.9375 5.4375 C22 6 22 6 23 7 C23.07226502 8.85287502 23.0838122 10.70833878 23.0625 12.5625 C23.05347656 13.57441406 23.04445313 14.58632813 23.03515625 15.62890625 C23.02355469 16.41136719 23.01195312 17.19382812 23 18 C22.23300781 17.82597656 21.46601562 17.65195312 20.67578125 17.47265625 C17.78582263 16.96216721 15.81885956 17.2751504 13 18 C12.67 14.7 12.34 11.4 12 8 C8.27549784 10.10515339 6.3204079 11.24267224 4.625 15.25 C4.315625 16.61125 4.315625 16.61125 4 18 C3.01 18 2.02 18 1 18 C0.67 12.06 0.34 6.12 0 0 Z " fill="#FFDDEE" transform="translate(877,493)"/>
<path d="M0 0 C1.96910249 0.39408023 1.96910249 0.39408023 4.07421875 -0.5078125 C5.88671875 -0.7578125 5.88671875 -0.7578125 8.69921875 1.3671875 C10.88671875 4.2421875 10.88671875 4.2421875 10.7265625 6.65234375 C9.78502918 9.55576974 8.62979589 11.25398324 6.63671875 13.5546875 C6.0540625 14.25207031 5.47140625 14.94945312 4.87109375 15.66796875 C2.88671875 17.2421875 2.88671875 17.2421875 0.31640625 17.61328125 C-3.3522491 17.05295608 -4.74052996 14.98958373 -7.11328125 12.2421875 C-7.71140625 11.6028125 -8.30953125 10.9634375 -8.92578125 10.3046875 C-10.58676071 7.41982844 -10.599995 5.51012265 -10.11328125 2.2421875 C-7.18468543 -1.54058211 -4.25419624 -0.77063074 0 0 Z " fill="#FFE2F0" transform="translate(858.11328125,493.7578125)"/>
<path d="M0 0 C0.99 0.66 1.98 1.32 3 2 C3 2.66 3 3.32 3 4 C4.093125 4.103125 5.18625 4.20625 6.3125 4.3125 C10 5 10 5 11.9375 6.25 C13.35440053 8.58371852 13.21718696 10.32136078 13 13 C7.86485687 16.29348185 3.7910707 17.75511401 -2.25 18.375 C-2.95640625 18.46910156 -3.6628125 18.56320312 -4.390625 18.66015625 C-8.272207 19.1085966 -9.64921567 19.23385622 -13 17 C-13 16.34 -13 15.68 -13 15 C-13.99 14.67 -14.98 14.34 -16 14 C-13 12 -13 12 -9.5625 11.1875 C-5.43913447 9.81304482 -4.27974661 8.63070757 -2 5 C-0.75983331 2.3205355 -0.75983331 2.3205355 0 0 Z " fill="#E7C0C4" transform="translate(959,259)"/>
<path d="M0 0 C1.03125 0.04125 2.0625 0.0825 3.125 0.125 C4.445 0.125 5.765 0.125 7.125 0.125 C9.46134657 0.43651288 11.79538557 0.76659778 14.125 1.125 C15.0719591 3.90669236 15.50752583 5.27156411 15.125 8.125 C12.9349332 11.63800055 10.4288295 14.6215828 7.125 17.125 C4.58984375 17.6015625 4.58984375 17.6015625 2.125 17.125 C-0.82244869 14.9300914 -2.94062643 12.23847207 -4.875 9.125 C-5.4375 5.25 -5.4375 5.25 -4.875 2.125 C-2.875 0.125 -2.875 0.125 0 0 Z " fill="#FFEBF5" transform="translate(1056.875,493.875)"/>
<path d="M0 0 C0.33 0.66 0.66 1.32 1 2 C0.360625 2.495 -0.27875 2.99 -0.9375 3.5 C-3.35437533 6.42954585 -3.94120305 8.36855602 -4.21875 12.1015625 C-4.14285674 14.26068945 -4.14285674 14.26068945 -2.0625 16.375 C5.70083865 20.49432255 13.47325921 20.28169727 22.0625 20.1875 C23.25738037 20.18250488 24.45226074 20.17750977 25.68334961 20.17236328 C33.32124729 20.11327932 40.87558733 19.80664048 48.47265625 19.0234375 C49.30667969 19.01570313 50.14070312 19.00796875 51 19 C51.66 19.66 52.32 20.32 53 21 C51.68911318 21.31919939 50.37614752 21.62985947 49.0625 21.9375 C47.96615234 22.19853516 47.96615234 22.19853516 46.84765625 22.46484375 C32.29795761 25.19914925 7.15852205 28.39673517 -6.1328125 20.77734375 C-7.875 19.3125 -7.875 19.3125 -10 16 C-10.34315702 11.28159097 -9.04201222 8.72016304 -6.125 5.1875 C-4.1475546 3.01628483 -2.48700967 1.65800645 0 0 Z " fill="#F8DFDD" transform="translate(896,270)"/>
<path d="M0 0 C5.81857598 0.06301707 11.84150282 2.08140036 16.36328125 5.7890625 C17.5625 7.3125 17.5625 7.3125 17.4375 9.875 C16.5625 12.3125 16.5625 12.3125 13.5625 14.3125 C8.23026662 15.03239336 3.82475523 14.95470003 -1 12.5 C-3.4375 10.3125 -3.4375 10.3125 -5.4375 7.3125 C-4.74942661 0.43176606 -4.74942661 0.43176606 0 0 Z " fill="#90BA8B" transform="translate(934.4375,299.6875)"/>
<path d="M0 0 C1.8125 0.875 1.8125 0.875 3.8125 2.875 C4.16158652 6.88949501 3.80018713 9.39654753 1.8125 12.875 C1.8125 13.535 1.8125 14.195 1.8125 14.875 C-4.8125 18 -4.8125 18 -8.1875 16.875 C-8.97125 17.060625 -9.755 17.24625 -10.5625 17.4375 C-13.76975143 17.9720419 -15.34221249 17.37667952 -18.1875 15.875 C-18.5175 15.215 -18.8475 14.555 -19.1875 13.875 C-18.5275 13.875 -17.8675 13.875 -17.1875 13.875 C-17.0225 13.153125 -16.8575 12.43125 -16.6875 11.6875 C-14.78850141 8.12687764 -12.65405144 7.04107361 -9.21484375 5.08203125 C-6.96475769 3.82222316 -6.96475769 3.82222316 -4.4375 1.5 C-2.1875 -0.125 -2.1875 -0.125 0 0 Z " fill="#9CBFCF" transform="translate(997.1875,217.125)"/>
<path d="M0 0 C20.75559701 0.55348259 20.75559701 0.55348259 27.625 7.75 C28.305625 8.86375 28.305625 8.86375 29 10 C25.41593732 21.06384568 19.9258041 26.0381176 10.25 32 C9.58766357 32.41064697 8.92532715 32.82129395 8.24291992 33.24438477 C6.54283916 34.24821927 4.77414048 35.13375301 3 36 C2.01 35.67 1.02 35.34 0 35 C4.75 32 4.75 32 7 32 C7 31.34 7 30.68 7 30 C7.66 30 8.32 30 9 30 C9 29.01 9 28.02 9 27 C11.3359375 25.09765625 11.3359375 25.09765625 14.375 23.0625 C19.24506536 19.90429062 19.24506536 19.90429062 22 15 C22.23684105 12.43099674 22.23684105 12.43099674 21 10 C15.08470107 5.29464858 8.34210875 4.83909814 1 4 C0.67 2.68 0.34 1.36 0 0 Z " fill="#EBC9CA" transform="translate(1004,238)"/>
<path d="M0 0 C1.134375 0.020625 2.26875 0.04125 3.4375 0.0625 C3.7675 1.3825 4.0975 2.7025 4.4375 4.0625 C2.4575 3.4025 0.4775 2.7425 -1.5625 2.0625 C-1.5625 3.0525 -1.5625 4.0425 -1.5625 5.0625 C-0.758125 5.206875 0.04625 5.35125 0.875 5.5 C3.4375 6.0625 3.4375 6.0625 4.4375 7.0625 C4.80875 6.4025 5.18 5.7425 5.5625 5.0625 C7.4375 3.0625 7.4375 3.0625 10.4375 2.875 C11.4275 2.936875 12.4175 2.99875 13.4375 3.0625 C14.4275 2.7325 15.4175 2.4025 16.4375 2.0625 C16.4375 1.4025 16.4375 0.7425 16.4375 0.0625 C17.4275 0.0625 18.4175 0.0625 19.4375 0.0625 C20.49154945 4.04446457 20.27848656 7.04445309 19.4375 11.0625 C21.0875 10.7325 22.7375 10.4025 24.4375 10.0625 C24.4375 11.7125 24.4375 13.3625 24.4375 15.0625 C23.1175 15.3925 21.7975 15.7225 20.4375 16.0625 C20.4375 15.4025 20.4375 14.7425 20.4375 14.0625 C19.1175 13.7325 17.7975 13.4025 16.4375 13.0625 C16.4375 10.4225 16.4375 7.7825 16.4375 5.0625 C15.7775 5.0625 15.1175 5.0625 14.4375 5.0625 C14.4375 6.3825 14.4375 7.7025 14.4375 9.0625 C13.4475 9.3925 12.4575 9.7225 11.4375 10.0625 C12.4275 10.0625 13.4175 10.0625 14.4375 10.0625 C14.1075 11.0525 13.7775 12.0425 13.4375 13.0625 C10.10416667 13.0625 6.77083333 13.0625 3.4375 13.0625 C2.2 13.4028125 2.2 13.4028125 0.9375 13.75 C-1.5625 14.0625 -1.5625 14.0625 -3.875 12.75 C-4.431875 12.193125 -4.98875 11.63625 -5.5625 11.0625 C-5.5625 10.4025 -5.5625 9.7425 -5.5625 9.0625 C-3.2525 9.3925 -0.9425 9.7225 1.4375 10.0625 C-0.51466435 8.11033565 -2.09449953 7.21423355 -4.5625 6.0625 C-4.605221 4.39638095 -4.60313832 2.72867115 -4.5625 1.0625 C-3.5625 0.0625 -3.5625 0.0625 0 0 Z " fill="#FFEBF5" transform="translate(957.5625,694.9375)"/>
<path d="M0 0 C2.375 1.5625 2.375 1.5625 4 3 C3.34 5.31 2.68 7.62 2 10 C0.35 10.33 -1.3 10.66 -3 11 C-3.33 11.99 -3.66 12.98 -4 14 C-5.36125 13.9690625 -5.36125 13.9690625 -6.75 13.9375 C-9.45498249 13.98951889 -11.43478023 14.29177628 -14 15 C-14.58365019 5.07794677 -14.58365019 5.07794677 -11 1 C-7.10622985 -1.31521468 -4.31257515 -1.19283994 0 0 Z " fill="#E2EAD7" transform="translate(994,241)"/>
<path d="M0 0 C0.99 0 1.98 0 3 0 C3 1.32 3 2.64 3 4 C3.99 4 4.98 4 6 4 C6.66 5.32 7.32 6.64 8 8 C8.33 7.01 8.66 6.02 9 5 C9.99 5 10.98 5 12 5 C11.00956295 9.83628305 10.04301154 14.47618873 8 19 C6.68 19 5.36 19 4 19 C4 18.34 4 17.68 4 17 C4.66 17 5.32 17 6 17 C5.34 14.36 4.68 11.72 4 9 C3.67 11.31 3.34 13.62 3 16 C-0.375 16.125 -0.375 16.125 -4 16 C-6 14 -6 14 -6.265625 12.125 C-6.26046875 11.42375 -6.2553125 10.7225 -6.25 10 C-6.25515625 9.29875 -6.2603125 8.5975 -6.265625 7.875 C-6 6 -6 6 -4 4 C-3.01 4 -2.02 4 -1 4 C-0.67 2.68 -0.34 1.36 0 0 Z " fill="#FFCEE7" transform="translate(932,693)"/>
<path d="M0 0 C1.39195915 4.17587745 -0.17676781 6.13474776 -2 10 C-2.99 10 -3.98 10 -5 10 C-5 10.66 -5 11.32 -5 12 C-6.03125 11.773125 -7.0625 11.54625 -8.125 11.3125 C-13.94027862 10.84352592 -16.68691568 12.90129679 -21.0625 16.5625 C-23.73374834 18.77906777 -25.73630409 19.94409838 -29 21 C-27.48387097 17.20967742 -27.48387097 17.20967742 -25.125 16.1875 C-22.64178619 15.07301514 -22.64178619 15.07301514 -21.4765625 11.703125 C-18.74077796 6.73504722 -14.35875637 5.45281532 -9.25 3.5625 C-8.36183594 3.21251953 -7.47367188 2.86253906 -6.55859375 2.50195312 C-4.37960667 1.64675927 -2.19466608 0.81391378 0 0 Z " fill="#BDA0A7" transform="translate(1006,276)"/>
<path d="M0 0 C0.33 0.66 0.66 1.32 1 2 C0.22265625 3.7265625 0.22265625 3.7265625 -0.9375 5.625 C-1.618125 6.73875 -2.29875 7.8525 -3 9 C-2.34 9.66 -1.68 10.32 -1 11 C-6.1468192 14.16727335 -10.158256 14.35050464 -16 14 C-16.25 11.6875 -16.25 11.6875 -16 9 C-13.95575462 7.02389614 -12.8823175 6 -10 6 C-9.8453125 5.071875 -9.8453125 5.071875 -9.6875 4.125 C-8.12832587 -0.6942655 -4.29769918 -0.19100885 0 0 Z " fill="#C7E6EF" transform="translate(941,204)"/>
<path d="M0 0 C0.33 1.32 0.66 2.64 1 4 C0.01 4.33 -0.98 4.66 -2 5 C-3.20882096 7.00016466 -3.20882096 7.00016466 -4 9 C-4.99 9 -5.98 9 -7 9 C-7.598125 9.969375 -8.19625 10.93875 -8.8125 11.9375 C-11 15 -11 15 -14.25 15.875 C-15.61125 15.936875 -15.61125 15.936875 -17 16 C-16.50976284 11.685913 -15.68880986 9.36101233 -13 6 C-12.855625 5.29875 -12.71125 4.5975 -12.5625 3.875 C-12 2 -12 2 -10.4375 0.75 C-6.89085382 -0.34127575 -3.70471601 -0.12349053 0 0 Z " fill="#C6E3EE" transform="translate(990,212)"/>
<path d="M0 0 C0.99 0 1.98 0 3 0 C4.32 5.61 5.64 11.22 7 17 C5.68 17.33 4.36 17.66 3 18 C2.34 16.02 1.68 14.04 1 12 C0.01 12 -0.98 12 -2 12 C-2.33 13.98 -2.66 15.96 -3 18 C-4.32 18 -5.64 18 -7 18 C-7 14.7 -7 11.4 -7 8 C-6.34 7.67 -5.68 7.34 -5 7 C-3.86649466 4.98330173 -3.86649466 4.98330173 -3 3 C-2.34 3 -1.68 3 -1 3 C-0.67 2.01 -0.34 1.02 0 0 Z " fill="#FFEAF4" transform="translate(958,493)"/>
<path d="M0 0 C0.6875 1.6875 0.6875 1.6875 1 4 C-0.1875 6.5 -0.1875 6.5 -2 9 C-2.7734375 10.11375 -2.7734375 10.11375 -3.5625 11.25 C-7.34809906 13.96786599 -11.44026735 13.8259644 -16 14 C-16.15625 9.2265625 -16.15625 9.2265625 -14.75 7.1875 C-13 6 -13 6 -9 6 C-8.8453125 5.071875 -8.8453125 5.071875 -8.6875 4.125 C-7.25616829 -0.29911619 -4.03097181 -0.21789037 0 0 Z " fill="#F6DAD9" transform="translate(958,258)"/>
<path d="M0 0 C6 0 6 0 8.34765625 1.18359375 C10.5112657 3.56202967 10.50771412 4.88414089 10.4375 8.0625 C10.43621094 8.94035156 10.43492187 9.81820312 10.43359375 10.72265625 C10.21896484 11.84994141 10.21896484 11.84994141 10 13 C7 15 7 15 0 15 C0 10.05 0 5.1 0 0 Z " fill="#FFF4F9" transform="translate(988,694)"/>
<path d="M0 0 C1.65 0.33 3.3 0.66 5 1 C5 1.66 5 2.32 5 3 C5.7425 2.484375 6.485 1.96875 7.25 1.4375 C10 0 10 0 12.3125 0.3125 C12.869375 0.539375 13.42625 0.76625 14 1 C13.73781251 5.4571874 13.42288711 7.51522698 10.4375 10.9375 C9.633125 11.618125 8.82875 12.29875 8 13 C3.77564573 11.43542435 1.50941353 8.656574 -1 5 C-0.8125 2.125 -0.8125 2.125 0 0 Z " fill="#FF319F" transform="translate(1055,496)"/>
<path d="M0 0 C2.94887797 0.50842724 5.37371875 1.59306362 8 3 C8.33 2.01 8.66 1.02 9 0 C10.65 0.33 12.3 0.66 14 1 C13.79692286 5.26461992 12.91504038 7.43248951 9.9375 10.375 C8.968125 11.24125 7.99875 12.1075 7 13 C3.19374018 11.50468364 1.22059499 9.41019944 -1 6 C-1.3125 3.25 -1.3125 3.25 -1 1 C-0.67 0.67 -0.34 0.34 0 0 Z " fill="#FF6BB5" transform="translate(852,496)"/>
<path d="M0 0 C0.598125 0.165 1.19625 0.33 1.8125 0.5 C4.279495 1.06388457 5.60420986 0.68307643 8 0 C8.10826289 2.4178712 8.18739789 4.83087556 8.25 7.25 C8.30027344 8.27287109 8.30027344 8.27287109 8.3515625 9.31640625 C8.41899298 12.78907596 8.25550499 14.65277528 6.171875 17.484375 C4 19 4 19 1 19 C0.67 17.68 0.34 16.36 0 15 C0.99 14.67 1.98 14.34 3 14 C3.33 13.34 3.66 12.68 4 12 C3.360625 11.855625 2.72125 11.71125 2.0625 11.5625 C0 11 0 11 -1 10 C-1.0979057 8.50261876 -1.12974864 7.00057108 -1.125 5.5 C-1.12757813 4.6853125 -1.13015625 3.870625 -1.1328125 3.03125 C-1 1 -1 1 0 0 Z " fill="#FFEBF5" transform="translate(903,498)"/>
<path d="M0 0 C0.33 5.61 0.66 11.22 1 17 C-4.76923077 18.15384615 -4.76923077 18.15384615 -8 17 C-9 16 -9 16 -9.3125 12.625 C-9.209375 11.42875 -9.10625 10.2325 -9 9 C-7.0625 7.375 -7.0625 7.375 -5 6 C-4.35232207 3.42938689 -4.35232207 3.42938689 -4 1 C-2 0 -2 0 0 0 Z " fill="#FFE5F2" transform="translate(975,493)"/>
<path d="M0 0 C0.99 0.33 1.98 0.66 3 1 C3 2.32 3 3.64 3 5 C3.9590625 5.2165625 3.9590625 5.2165625 4.9375 5.4375 C7 6 7 6 8 7 C8.07226502 8.85287502 8.0838122 10.70833878 8.0625 12.5625 C8.05347656 13.57441406 8.04445313 14.58632813 8.03515625 15.62890625 C8.02355469 16.41136719 8.01195312 17.19382812 8 18 C5.03 17.67 2.06 17.34 -1 17 C-1.02684679 14.35409986 -1.04676357 11.70846904 -1.0625 9.0625 C-1.07087891 8.30775391 -1.07925781 7.55300781 -1.08789062 6.77539062 C-1.09652441 4.85005687 -1.05224333 2.92464419 -1 1 C-0.67 0.67 -0.34 0.34 0 0 Z " fill="#FFE9F4" transform="translate(892,493)"/>
<path d="M0 0 C2.27585435 2.09430471 3.70983709 4.0359814 5.0625 6.8125 C5.38347656 7.45832031 5.70445312 8.10414063 6.03515625 8.76953125 C7.19289512 11.44592353 8.07785929 14.23357786 9 17 C1.74 17 -5.52 17 -13 17 C-13 16.34 -13 15.68 -13 15 C-12.09507812 14.96132813 -12.09507812 14.96132813 -11.171875 14.921875 C-7.49390432 14.66085773 -4.68294198 14.38311379 -1.4375 12.5625 C0.81759643 8.54254549 0.30956527 4.50589453 0 0 Z " fill="#A6D5A7" transform="translate(922,270)"/>
<path d="M0 0 C7 0 7 0 9 1.0625 C10.56925605 4.1029336 9.57704662 6.71083426 9 10 C9.34659295 12.32158065 9.34659295 12.32158065 10 14 C8.68 13.67 7.36 13.34 6 13 C5.67 11.68 5.34 10.36 5 9 C4.34 9 3.68 9 3 9 C3 10.98 3 12.96 3 15 C2.01 15 1.02 15 0 15 C0 10.05 0 5.1 0 0 Z " fill="#FFCEE7" transform="translate(895,694)"/>
<path d="M0 0 C8.57142857 0.85714286 8.57142857 0.85714286 12 3 C11.91433603 5.912575 11.42089045 7.56798024 9.375 9.66796875 C7.61608625 11.16091772 5.83686981 12.60436262 4 14 C1.59960958 9.32024725 0 5.32695729 0 0 Z " fill="#FDCAD7" transform="translate(1008,248)"/>
<path d="M0 0 C0.66 0 1.32 0 2 0 C2 0.66 2 1.32 2 2 C7.94 2.99 7.94 2.99 14 4 C10.57741553 6.56693835 8.55073348 7.70242088 4.6484375 9.04296875 C3.63265625 9.39423828 2.616875 9.74550781 1.5703125 10.10742188 C0.51585937 10.46384766 -0.53859375 10.82027344 -1.625 11.1875 C-2.6871875 11.55552734 -3.749375 11.92355469 -4.84375 12.30273438 C-12.71035772 15 -12.71035772 15 -15 15 C-14.67 14.01 -14.34 13.02 -14 12 C-12.35 11.67 -10.7 11.34 -9 11 C-9 10.34 -9 9.68 -9 9 C-8.0925 9.0825 -7.185 9.165 -6.25 9.25 C-2.95401929 9.27133673 -2.95401929 9.27133673 -0.5625 7.3125 C1.29977201 5.08190192 1.29977201 5.08190192 0.75 2.25 C0.5025 1.5075 0.255 0.765 0 0 Z " fill="#84B6BB" transform="translate(983,265)"/>
<path d="M0 0 C0.7425 0.2475 1.485 0.495 2.25 0.75 C2.064375 1.8225 1.87875 2.895 1.6875 4 C1.31151957 7.22268936 1.33506734 8.77646885 2.25 11.75 C1.25 12.75 1.25 12.75 -1.125 13 C-3.75 12.75 -3.75 12.75 -5.5625 11.625 C-7.32844751 8.83666183 -7.21181576 6.98271032 -6.75 3.75 C-4.61304198 0.66328286 -3.81689239 -0.34699022 0 0 Z " fill="#FFE8F4" transform="translate(993.75,498.25)"/>
<path d="M0 0 C0.99 0 1.98 0 3 0 C3 0.99 3 1.98 3 3 C3.66 3 4.32 3 5 3 C5 3.66 5 4.32 5 5 C4.34 5 3.68 5 3 5 C3 6.98 3 8.96 3 11 C3.66 11 4.32 11 5 11 C5 11.66 5 12.32 5 13 C3.35 12.67 1.7 12.34 0 12 C0 9.69 0 7.38 0 5 C-1.32 5 -2.64 5 -4 5 C-4 7.97 -4 10.94 -4 14 C-4.99 14 -5.98 14 -7 14 C-7 10.04 -7 6.08 -7 2 C-4.69 2 -2.38 2 0 2 C0 1.34 0 0.68 0 0 Z " fill="#FFDFF0" transform="translate(1016,695)"/>
<path d="M0 0 C2 2 2 2 2 6 C1.195625 6.12375 0.39125 6.2475 -0.4375 6.375 C-1.7059375 6.684375 -1.7059375 6.684375 -3 7 C-3.33 7.66 -3.66 8.32 -4 9 C-6.31 9 -8.62 9 -11 9 C-10.40806045 2.72544081 -10.40806045 2.72544081 -8.875 0 C-5.79098238 -1.6448094 -3.29025552 -0.77769676 0 0 Z " fill="#EAF2E2" transform="translate(919,265)"/>
<path d="M0 0 C0.763125 0.20625 1.52625 0.4125 2.3125 0.625 C2.126875 1.6975 1.94125 2.77 1.75 3.875 C1.3820432 7.02891546 1.26784657 8.72318492 2.3125 11.625 C0.0625 12.375 0.0625 12.375 -2.6875 12.625 C-5.0625 11.125 -5.0625 11.125 -6.6875 8.625 C-6.625 5 -6.625 5 -5.6875 1.625 C-2.6875 -0.375 -2.6875 -0.375 0 0 Z " fill="#FFEAF5" transform="translate(1040.6875,498.375)"/>
<path d="M0 0 C0.66 0 1.32 0 2 0 C2.33 3.96 2.66 7.92 3 12 C-0.82056178 12.95514044 -2.35541013 13.08352672 -6 12 C-7.20272819 9.59454362 -7.10071472 8.05003047 -7.0625 5.375 C-7.05347656 4.55773437 -7.04445313 3.74046875 -7.03515625 2.8984375 C-7.02355469 2.27195312 -7.01195312 1.64546875 -7 1 C-5.68 1 -4.36 1 -3 1 C-3 3.31 -3 5.62 -3 8 C-2.34 8 -1.68 8 -1 8 C-1.020625 6.865625 -1.04125 5.73125 -1.0625 4.5625 C-1 1 -1 1 0 0 Z " fill="#FFECF6" transform="translate(1022,498)"/>
<path d="M0 0 C3.0625 0.1875 3.0625 0.1875 5.0625 2.1875 C5.2578125 4.5703125 5.2578125 4.5703125 5.1875 7.3125 C5.16945313 8.22257812 5.15140625 9.13265625 5.1328125 10.0703125 C5.10960937 10.76898438 5.08640625 11.46765625 5.0625 12.1875 C4.0725 12.1875 3.0825 12.1875 2.0625 12.1875 C2.0625 9.8775 2.0625 7.5675 2.0625 5.1875 C1.4025 5.1875 0.7425 5.1875 0.0625 5.1875 C0.0625 7.4975 0.0625 9.8075 0.0625 12.1875 C-1.2575 12.5175 -2.5775 12.8475 -3.9375 13.1875 C-3.96436553 11.20840602 -3.98383375 9.22921029 -4 7.25 C-4.01160156 6.14785156 -4.02320313 5.04570312 -4.03515625 3.91015625 C-3.89929432 0.12232574 -3.80732768 0.24302092 0 0 Z " fill="#FFEDF6" transform="translate(1001.9375,497.8125)"/>
<path d="M0 0 C0.66 0 1.32 0 2 0 C2.33 2.31 2.66 4.62 3 7 C-2.12250616 10.27867214 -6.22856336 11.78030962 -12.25 12.4375 C-12.95640625 12.53998047 -13.6628125 12.64246094 -14.390625 12.74804688 C-19.50765079 13.36344676 -19.50765079 13.36344676 -21.984375 11.53515625 C-22.31953125 11.02855469 -22.6546875 10.52195312 -23 10 C-22.31035156 9.97421875 -21.62070312 9.9484375 -20.91015625 9.921875 C-14.33356869 9.52493419 -8.67954874 8.50018702 -3 5 C-2.67 4.34 -2.34 3.68 -2 3 C-1.34 3 -0.68 3 0 3 C0 2.01 0 1.02 0 0 Z " fill="#8EAEBA" transform="translate(969,265)"/>
<path d="M0 0 C0.886875 0.804375 1.77375 1.60875 2.6875 2.4375 C5.38287032 4.7039159 7.42063478 5.68417366 11 6 C11 6.66 11 7.32 11 8 C22.88 8.33 34.76 8.66 47 9 C46.67 9.66 46.34 10.32 46 11 C41.52088918 11.05856225 37.0418783 11.09378482 32.5625 11.125 C31.30244141 11.14175781 30.04238281 11.15851563 28.74414062 11.17578125 C17.94434598 11.23217704 9.59851317 10.71871141 1.125 3.375 C0 2 0 2 0 0 Z " fill="#E5B9BA" transform="translate(886,286)"/>
<path d="M0 0 C0.99 0 1.98 0 3 0 C3.33 1.32 3.66 2.64 4 4 C4.66 2.68 5.32 1.36 6 0 C7.32 0 8.64 0 10 0 C9.52343588 1.79236067 9.04366502 3.58386897 8.5625 5.375 C8.29566406 6.37273437 8.02882813 7.37046875 7.75390625 8.3984375 C7 11 7 11 6 13 C4.68 13 3.36 13 2 13 C1.46605821 11.5882217 0.94834896 10.17029756 0.4375 8.75 C0.14746094 7.96109375 -0.14257812 7.1721875 -0.44140625 6.359375 C-1.04522837 3.80896548 -0.8473932 2.44677771 0 0 Z " fill="#FFE8F4" transform="translate(977,498)"/>
<path d="M0 0 C8.57142857 -0.14285714 8.57142857 -0.14285714 12 1 C12 1.99 12 2.98 12 4 C12.66 4 13.32 4 14 4 C14 5.65 14 7.3 14 9 C9.71 8.01 5.42 7.02 1 6 C0.67 4.02 0.34 2.04 0 0 Z " fill="#A5CCD8" transform="translate(1006,242)"/>
<path d="M0 0 C0.33 4.29 0.66 8.58 1 13 C-6.75 11.125 -6.75 11.125 -9 10 C-8.84759391 7.33289346 -8.50635081 5.5494129 -6.66796875 3.5546875 C-2.49375 0 -2.49375 0 0 0 Z " fill="#F9CCD7" transform="translate(908,274)"/>
<path d="M0 0 C-0.1875 1.8125 -0.1875 1.8125 -1 4 C-3.4375 5.8125 -3.4375 5.8125 -6 7 C-6.66 6.67 -7.32 6.34 -8 6 C-9.1446875 6.2784375 -9.1446875 6.2784375 -10.3125 6.5625 C-13.55605322 7.09052029 -15.1239007 6.5179413 -18 5 C-18.33 4.34 -18.66 3.68 -19 3 C-5.89320388 0 -5.89320388 0 0 0 Z " fill="#8AB9C1" transform="translate(997,228)"/>
<path d="M0 0 C0 1.32 0 2.64 0 4 C0.66 4 1.32 4 2 4 C1.67 4.99 1.34 5.98 1 7 C0.93197033 8.72795352 0.91504355 10.45835365 0.9375 12.1875 C0.95103516 13.53908203 0.95103516 13.53908203 0.96484375 14.91796875 C0.97644531 15.60503906 0.98804688 16.29210937 1 17 C-0.32 17.33 -1.64 17.66 -3 18 C-4.38942653 15.22114693 -4.46078047 12.6509514 -4.75 9.5625 C-4.86859375 8.40878906 -4.9871875 7.25507813 -5.109375 6.06640625 C-5 3 -5 3 -3.640625 1.08984375 C-2 0 -2 0 0 0 Z " fill="#FFE3F1" transform="translate(1013,493)"/>
<path d="M0 0 C0.99 0 1.98 0 3 0 C4.05404945 3.98196457 3.84098656 6.98195309 3 11 C4.65 10.67 6.3 10.34 8 10 C8 11.65 8 13.3 8 15 C6.68 15.33 5.36 15.66 4 16 C4 15.34 4 14.68 4 14 C2.68 13.67 1.36 13.34 0 13 C0 10.36 0 7.72 0 5 C-0.66 5 -1.32 5 -2 5 C-2.33 5.66 -2.66 6.32 -3 7 C-2.67 5.35 -2.34 3.7 -2 2 C-1.34 2 -0.68 2 0 2 C0 1.34 0 0.68 0 0 Z " fill="#FFE2F1" transform="translate(974,695)"/>
<path d="M0 0 C1.010625 0.0825 2.02125 0.165 3.0625 0.25 C5.0625 3.25 5.0625 3.25 5.0625 6.25 C3.0825 6.25 1.1025 6.25 -0.9375 6.25 C-0.9375 6.91 -0.9375 7.57 -0.9375 8.25 C0.7125 7.92 2.3625 7.59 4.0625 7.25 C3.7325 8.24 3.4025 9.23 3.0625 10.25 C0.1875 10.4375 0.1875 10.4375 -2.9375 10.25 C-4.9375 7.25 -4.9375 7.25 -4.625 4.125 C-3.71417611 0.31610009 -3.71417611 0.31610009 0 0 Z " fill="#FFE1F0" transform="translate(909.9375,697.75)"/>
<path d="M0 0 C0.86625 0.3403125 0.86625 0.3403125 1.75 0.6875 C1.42 1.6775 1.09 2.6675 0.75 3.6875 C-0.24 3.6875 -1.23 3.6875 -2.25 3.6875 C-2.25 5.3375 -2.25 6.9875 -2.25 8.6875 C-0.93 8.6875 0.39 8.6875 1.75 8.6875 C1.42 10.0075 1.09 11.3275 0.75 12.6875 C-2.125 12.375 -2.125 12.375 -5.25 11.6875 C-7.25 8.6875 -7.25 8.6875 -7.125 5.6875 C-6.25 2.6875 -6.25 2.6875 -4.4375 0.75 C-2.25 -0.3125 -2.25 -0.3125 0 0 Z " fill="#FFE4F1" transform="translate(934.25,498.3125)"/>
<path d="M0 0 C0.94875 0.04125 1.8975 0.0825 2.875 0.125 C3.205 2.105 3.535 4.085 3.875 6.125 C2.885 6.455 1.895 6.785 0.875 7.125 C1.865 7.125 2.855 7.125 3.875 7.125 C3.545 8.115 3.215 9.105 2.875 10.125 C0 10.25 0 10.25 -3.125 10.125 C-5.125 8.125 -5.125 8.125 -5.375 5.125 C-5.02345647 0.90647769 -4.22997422 0.16919897 0 0 Z " fill="#FFE4F2" transform="translate(1004.125,697.875)"/>
<path d="M0 0 C1.32 1.32 2.64 2.64 4 4 C0.86274714 7.31652445 -2.08681731 9.69222559 -6 12 C-7.37310707 13.29233607 -8.71034824 14.62437146 -10 16 C-11 17 -12 18 -13 19 C-13.66 18.34 -14.32 17.68 -15 17 C-14.401875 16.649375 -13.80375 16.29875 -13.1875 15.9375 C-10.69675302 14.01649764 -10.69675302 14.01649764 -9.5 10.375 C-9.005 9.26125 -8.51 8.1475 -8 7 C-6 6.25 -6 6.25 -4 6 C-1.5821057 4.0298639 -1.01497436 3.04492309 0 0 Z " fill="#A8CCD9" transform="translate(991,213)"/>
<path d="M0 0 C0.598125 0.20625 1.19625 0.4125 1.8125 0.625 C1.8125 1.615 1.8125 2.605 1.8125 3.625 C0.8225 4.12 0.8225 4.12 -0.1875 4.625 C0.4725 4.955 1.1325 5.285 1.8125 5.625 C2 8 2 8 1.8125 10.625 C-1.1875 12.625 -1.1875 12.625 -5.1875 12.625 C-5.1875 9.625 -5.1875 9.625 -3.1875 7.625 C-3.8475 7.295 -4.5075 6.965 -5.1875 6.625 C-5.375 4.25 -5.375 4.25 -5.1875 1.625 C-2.1875 -0.375 -2.1875 -0.375 0 0 Z " fill="#FFEAF5" transform="translate(918.1875,498.375)"/>
<path d="M0 0 C1.39195915 4.17587745 -0.17676781 6.13474776 -2 10 C-3.4391134 9.71640113 -4.87625518 9.42278601 -6.3125 9.125 C-7.11300781 8.96257812 -7.91351562 8.80015625 -8.73828125 8.6328125 C-11 8 -11 8 -14 6 C-9.38 4.02 -4.76 2.04 0 0 Z " fill="#86A8B4" transform="translate(1006,276)"/>
<path d="M0 0 C1.99954746 -0.04254356 4.00041636 -0.04080783 6 0 C7 1 7 1 7.09765625 3.06640625 C7.08605469 3.89011719 7.07445312 4.71382812 7.0625 5.5625 C7.05347656 6.38878906 7.04445313 7.21507812 7.03515625 8.06640625 C7.02355469 8.70449219 7.01195312 9.34257813 7 10 C4.36 10 1.72 10 -1 10 C-1 8.35 -1 6.7 -1 5 C0.65 4.67 2.3 4.34 4 4 C4 3.34 4 2.68 4 2 C2.35 2.33 0.7 2.66 -1 3 C-0.67 2.01 -0.34 1.02 0 0 Z " fill="#FFF5FA" transform="translate(917,698)"/>
<path d="M0 0 C0.598125 0.20625 1.19625 0.4125 1.8125 0.625 C1.8125 1.615 1.8125 2.605 1.8125 3.625 C0.8225 4.12 0.8225 4.12 -0.1875 4.625 C0.4725 5.285 1.1325 5.945 1.8125 6.625 C1.4375 9.25 1.4375 9.25 0.8125 11.625 C-1.1675 11.955 -3.1475 12.285 -5.1875 12.625 C-5.1875 9.625 -5.1875 9.625 -3.1875 7.625 C-3.8475 7.295 -4.5075 6.965 -5.1875 6.625 C-5.375 4.25 -5.375 4.25 -5.1875 1.625 C-2.1875 -0.375 -2.1875 -0.375 0 0 Z " fill="#FFEBF5" transform="translate(942.1875,498.375)"/>
<path d="M0 0 C2.78490859 3.91950098 1.81114407 7.78612016 1.125 12.25 C1.02058594 12.99507813 0.91617188 13.74015625 0.80859375 14.5078125 C0.55018787 16.34014511 0.27657918 18.17032234 0 20 C-0.66 20 -1.32 20 -2 20 C-4.35599061 16.31876467 -4.35837173 13.30046079 -4 9 C-1.93969849 1.93969849 -1.93969849 1.93969849 0 0 Z " fill="#C0E1B4" transform="translate(908,245)"/>
<path d="M0 0 C3 1 3 1 4 3 C4.33 2.01 4.66 1.02 5 0 C5.99 0 6.98 0 8 0 C7.00956295 4.83628305 6.04301154 9.47618873 4 14 C2.68 14 1.36 14 0 14 C0 13.34 0 12.68 0 12 C0.66 12 1.32 12 2 12 C1.67 10.7625 1.34 9.525 1 8.25 C0.20108841 5.25408155 0 3.19892281 0 0 Z " fill="#FFEBF5" transform="translate(936,698)"/>
<path d="M0 0 C1.98 0 3.96 0 6 0 C6 0.33 6 0.66 6 1 C4.35 1 2.7 1 1 1 C1.33 3.64 1.66 6.28 2 9 C2.804375 8.979375 3.60875 8.95875 4.4375 8.9375 C7 9 7 9 8 10 C8.66 9.34 9.32 8.68 10 8 C10.1875 10.375 10.1875 10.375 10 13 C7 15 7 15 0 15 C0 10.05 0 5.1 0 0 Z " fill="#FFB9DE" transform="translate(988,694)"/>
<path d="M0 0 C0 1.65 0 3.3 0 5 C-0.99 5 -1.98 5 -3 5 C-3 7.31 -3 9.62 -3 12 C-4.32 12.33 -5.64 12.66 -7 13 C-7 9.04 -7 5.08 -7 1 C-4.53721199 -0.231394 -2.7204945 -0.07159196 0 0 Z " fill="#FFE6F3" transform="translate(1033,498)"/>
<path d="M0 0 C0.33 0.66 0.66 1.32 1 2 C1.66 2 2.32 2 3 2 C3 2.66 3 3.32 3 4 C0.953125 5.5859375 0.953125 5.5859375 -1.75 7.375 C-7.60004195 11.25792258 -11.10973064 14.06901235 -13 21 C-13.33 21 -13.66 21 -14 21 C-13.64718163 15.53131524 -13.64718163 15.53131524 -13 13 C-11 11.8125 -11 11.8125 -9 11 C-8.8453125 9.824375 -8.8453125 9.824375 -8.6875 8.625 C-8 6 -8 6 -6.42578125 4.85546875 C-4.62865089 3.88217502 -2.81485251 2.93983434 -1 2 C-0.67 1.34 -0.34 0.68 0 0 Z " fill="#F8DCDA" transform="translate(905,263)"/>
<path d="M0 0 C1.485 0.495 1.485 0.495 3 1 C-25.29467259 13.9017758 -25.29467259 13.9017758 -31 12 C-29.02 11.01 -27.04 10.02 -25 9 C-25 8.34 -25 7.68 -25 7 C-21.71303767 6.20046862 -20.28976808 5.90341064 -17 7 C-14.40357541 6.12584144 -11.95041999 5.19483349 -9.4375 4.125 C-8.75236328 3.84269531 -8.06722656 3.56039063 -7.36132812 3.26953125 C-4.8750763 2.23989605 -2.40763838 1.20381919 0 0 Z " fill="#BAD6E2" transform="translate(1001,270)"/>
<path d="M0 0 C0.99 0.33 1.98 0.66 3 1 C3 5.62 3 10.24 3 15 C1.68 15 0.36 15 -1 15 C-1.02685412 12.68756208 -1.04632841 10.3750373 -1.0625 8.0625 C-1.07410156 6.77472656 -1.08570313 5.48695313 -1.09765625 4.16015625 C-1 1 -1 1 0 0 Z " fill="#FFE6F3" transform="translate(923,495)"/>
<path d="M0 0 C2.5625 0.1875 2.5625 0.1875 4.5625 2.1875 C4.1875 4.8125 4.1875 4.8125 3.5625 7.1875 C1.25 7.8125 1.25 7.8125 -1.4375 8.1875 C-2.4275 7.5275 -3.4175 6.8675 -4.4375 6.1875 C-3.3735 0.2595 -3.3735 0.2595 0 0 Z " fill="#F5C6AB" transform="translate(939.4375,234.8125)"/>
<path d="M0 0 C2.31 0 4.62 0 7 0 C6.01 0.5259375 6.01 0.5259375 5 1.0625 C2.58896039 2.96557142 2.58896039 2.96557142 2.75 6.6875 C2.8325 7.780625 2.915 8.87375 3 10 C4.65 10.33 6.3 10.66 8 11 C8 11.99 8 12.98 8 14 C5.36 14 2.72 14 0 14 C0 9.38 0 4.76 0 0 Z " fill="#FF82C4" transform="translate(1010,403)"/>
<path d="M0 0 C-9.02742485 4.03353025 -17.05576199 6.46096654 -27 7 C-24.39899643 5.65605161 -21.81262069 4.50202417 -19.0625 3.5 C-16.81567486 2.6792041 -14.62937604 1.83728704 -12.4375 0.875 C-8.14132875 -0.66721532 -4.36666574 -1.45555525 0 0 Z " fill="#F0C9C9" transform="translate(984,283)"/>
<path d="M0 0 C0 0.99 0 1.98 0 3 C-1.42578125 4.24609375 -1.42578125 4.24609375 -3.3125 5.4375 C-6.15683946 7.33756482 -8.15088279 9.06316678 -10 12 C-11 11 -11 11 -11.375 8.75 C-10.84170601 4.83917737 -8.96322385 3.48083857 -6 1 C-3 0 -3 0 0 0 Z " fill="#92C3D0" transform="translate(908,271)"/>
<path d="M0 0 C1.65 0 3.3 0 5 0 C4.01 0.495 4.01 0.495 3 1 C3 2.32 3 3.64 3 5 C3.99 5.33 4.98 5.66 6 6 C5.01 6.33 4.02 6.66 3 7 C3 9.31 3 11.62 3 14 C2.01 14 1.02 14 0 14 C0 9.38 0 4.76 0 0 Z " fill="#FFECF5" transform="translate(895,695)"/>
<path d="M0 0 C0.66 0 1.32 0 2 0 C5 5.75 5 5.75 5 8 C1.7 8 -1.6 8 -5 8 C-1.2890625 1.75 -1.2890625 1.75 0 0 Z " fill="#83B9A2" transform="translate(926,279)"/>
<path d="M0 0 C0.66 0 1.32 0 2 0 C2.33 2.31 2.66 4.62 3 7 C-6.41002278 9.29612756 -6.41002278 9.29612756 -11 9 C-8.94709452 7.97354726 -6.90024097 6.95439587 -4.8125 6 C-2.82798477 5.12855431 -2.82798477 5.12855431 -2 3 C-1.34 3 -0.68 3 0 3 C0 2.01 0 1.02 0 0 Z " fill="#C2B9C0" transform="translate(969,265)"/>
<path d="M0 0 C0 1.65 0 3.3 0 5 C0.99 5.33 1.98 5.66 3 6 C2.67 6.66 2.34 7.32 2 8 C1.34 8 0.68 8 0 8 C-0.33 8.66 -0.66 9.32 -1 10 C-1 9.01 -1 8.02 -1 7 C-2.32 7 -3.64 7 -5 7 C-5 5.35 -5 3.7 -5 2 C-1.125 0 -1.125 0 0 0 Z " fill="#FF61B3" transform="translate(937,500)"/>
<path d="M0 0 C-1.9461869 4.77700421 -5.1444002 8.13405342 -9.8125 10.3125 C-10.8953125 10.6528125 -10.8953125 10.6528125 -12 11 C-10.5611898 7.612801 -8.77880501 5.6405896 -6 3.25 C-5.29875 2.63640625 -4.5975 2.0228125 -3.875 1.390625 C-2 0 -2 0 0 0 Z " fill="#F3D5D4" transform="translate(1029,254)"/>
<path d="M0 0 C1.6254308 0.14095064 3.25034051 0.28792087 4.875 0.4375 C5.77992188 0.51871094 6.68484375 0.59992188 7.6171875 0.68359375 C10 1 10 1 12 2 C12 2.99 12 3.98 12 5 C6.06 4.01 6.06 4.01 0 3 C0 2.01 0 1.02 0 0 Z " fill="#7FAFC2" transform="translate(1007,245)"/>
<path d="M0 0 C0.2578125 0.57492187 0.515625 1.14984375 0.78125 1.7421875 C2.10758299 4.19930438 3.63721637 6.04910129 5.5 8.125 C6.41265625 9.14980469 6.41265625 9.14980469 7.34375 10.1953125 C8.53304924 11.49119988 9.75626434 12.75626434 11 14 C6.1565954 13.58485103 4.18412171 11.53791301 1 8 C0.67 7.67 0.34 7.34 0 7 C-0.04092937 4.66702567 -0.04241723 2.33294775 0 0 Z " fill="#FFEEF6" transform="translate(849,497)"/>
<path d="M0 0 C1.67542976 0.28604898 3.34385343 0.61781233 5 1 C4.67 2.65 4.34 4.3 4 6 C2.0625 6.5625 2.0625 6.5625 0 7 C-1 6 -1 6 -1.125 3.5 C-1 1 -1 1 0 0 Z " fill="#676570" transform="translate(954,233)"/>
<path d="M0 0 C2.625 0.375 2.625 0.375 5 1 C4.25 3.4375 4.25 3.4375 3 6 C0.875 6.8125 0.875 6.8125 -1 7 C-1.625 4.625 -1.625 4.625 -2 2 C-1.34 1.34 -0.68 0.68 0 0 Z " fill="#F6D6D5" transform="translate(963,263)"/>
<path d="M0 0 C0.99 0.99 1.98 1.98 3 3 C2.01 4.98 1.02 6.96 0 9 C-1.65 9 -3.3 9 -5 9 C-4.3566152 7.686298 -3.71021785 6.37407102 -3.0625 5.0625 C-2.70285156 4.33160156 -2.34320312 3.60070312 -1.97265625 2.84765625 C-1 1 -1 1 0 0 Z " fill="#B5D9E5" transform="translate(942,205)"/>
<path d="M0 0 C0.99 0 1.98 0 3 0 C3 3.63 3 7.26 3 11 C2.01 11 1.02 11 0 11 C0 7.37 0 3.74 0 0 Z " fill="#FFD6EC" transform="translate(1022,694)"/>
<path d="M0 0 C1.98 0 3.96 0 6 0 C6.5625 1.9375 6.5625 1.9375 7 4 C6 5 6 5 2.9375 5.0625 C1.4834375 5.0315625 1.4834375 5.0315625 0 5 C0 3.35 0 1.7 0 0 Z " fill="#FF259A" transform="translate(1073,403)"/>
<path d="M0 0 C1.98 0 3.96 0 6 0 C6.5625 1.9375 6.5625 1.9375 7 4 C6 5 6 5 2.9375 5.0625 C1.4834375 5.0315625 1.4834375 5.0315625 0 5 C0 3.35 0 1.7 0 0 Z " fill="#FF2F9F" transform="translate(905,403)"/>
<path d="M0 0 C0.99 1.32 1.98 2.64 3 4 C-0.23076923 10.92307692 -0.23076923 10.92307692 -3 13 C-5.69921875 13.29296875 -5.69921875 13.29296875 -8.6875 13.1875 C-9.68136719 13.16042969 -10.67523437 13.13335937 -11.69921875 13.10546875 C-12.45847656 13.07066406 -13.21773437 13.03585937 -14 13 C-14 12.67 -14 12.34 -14 12 C-12.96939453 11.96132813 -12.96939453 11.96132813 -11.91796875 11.921875 C-11.01691406 11.86515625 -10.11585938 11.8084375 -9.1875 11.75 C-8.29417969 11.70359375 -7.40085937 11.6571875 -6.48046875 11.609375 C-3.88707616 11.20257728 -3.88707616 11.20257728 -2.21875 9.1875 C-0.55591934 6.20293216 -0.32401932 3.36980093 0 0 Z " fill="#96CB9D" transform="translate(924,274)"/>
<path d="M0 0 C0.66 0.33 1.32 0.66 2 1 C1.54842977 5.85437999 0.40802387 8.49174013 -3 12 C-3.99 12.33 -4.98 12.66 -6 13 C-5.67 11.68 -5.34 10.36 -5 9 C-4.34 9 -3.68 9 -3 9 C-2.01 6.03 -1.02 3.06 0 0 Z " fill="#AEBDD0" transform="translate(1025,248)"/>
<path d="M0 0 C0.33 0 0.66 0 1 0 C0.77639942 5.59001458 -0.53347435 8.20339831 -4.33203125 12.03125 C-6 13 -6 13 -8.19921875 12.65625 C-8.79347656 12.4396875 -9.38773438 12.223125 -10 12 C-9.52949219 11.63648438 -9.05898437 11.27296875 -8.57421875 10.8984375 C-4.52807056 7.63136132 -1.99716574 4.93417419 0 0 Z " fill="#FFEEF7" transform="translate(1070,498)"/>
<path d="M0 0 C0.66 0 1.32 0 2 0 C2 4.62 2 9.24 2 14 C0.68 13.67 -0.64 13.34 -2 13 C-1.34 13 -0.68 13 0 13 C-0.185625 11.783125 -0.37125 10.56625 -0.5625 9.3125 C-0.98993182 5.97022061 -0.92258883 3.28031583 0 0 Z " fill="#FFFAFC" transform="translate(932,694)"/>
<path d="M0 0 C0.598125 0.350625 1.19625 0.70125 1.8125 1.0625 C1.4825 2.7125 1.1525 4.3625 0.8125 6.0625 C0.4825 5.4025 0.1525 4.7425 -0.1875 4.0625 C-1.8375 4.0625 -3.4875 4.0625 -5.1875 4.0625 C-5.1875 2.7425 -5.1875 1.4225 -5.1875 0.0625 C-2.1875 -0.9375 -2.1875 -0.9375 0 0 Z " fill="#FFAAD7" transform="translate(996.1875,695.9375)"/>
<path d="M0 0 C0.185625 0.639375 0.37125 1.27875 0.5625 1.9375 C1.94246056 4.42126213 1.94246056 4.42126213 5.625 4.75 C6.73875 4.8325 7.8525 4.915 9 5 C8.67 5.99 8.34 6.98 8 8 C2.375 8.25 2.375 8.25 -1 6 C-0.67 4.02 -0.34 2.04 0 0 Z " fill="#FFDDEE" transform="translate(963,700)"/>
<path d="M0 0 C1.67542976 0.28604898 3.34385343 0.61781233 5 1 C5 2.65 5 4.3 5 6 C3.02 6 1.04 6 -1 6 C-1.042721 4.33388095 -1.04063832 2.66617115 -1 1 C-0.67 0.67 -0.34 0.34 0 0 Z " fill="#FFDAED" transform="translate(917,702)"/>
<path d="M0 0 C0.66 0.33 1.32 0.66 2 1 C-0.22222392 5.08889201 -1.29408826 6.7411657 -5.75 8.375 C-6.8225 8.58125 -7.895 8.7875 -9 9 C-8.25 6.5625 -8.25 6.5625 -7 4 C-5.0625 3.375 -5.0625 3.375 -3 3 C-1.26973898 1.52109931 -1.26973898 1.52109931 0 0 Z " fill="#B4D6E3" transform="translate(990,216)"/>
<path d="M0 0 C2.93200474 2.85276137 5.64315404 5.65079784 8 9 C7.01 9.33 6.02 9.66 5 10 C0.07692308 5.69230769 0.07692308 5.69230769 -0.3125 2.1875 C-0.209375 1.465625 -0.10625 0.74375 0 0 Z " fill="#FFD6EB" transform="translate(1054,501)"/>
<path d="M0 0 C-3 2 -3 2 -5 3 C-5.33 3.66 -5.66 4.32 -6 5 C-7 7 -7 7 -9 8 C-9.25 5.1875 -9.25 5.1875 -9 2 C-6.09797328 -1.3319566 -4.08536588 -1.24830624 0 0 Z " fill="#FFD3E9" transform="translate(857,494)"/>
<path d="M0 0 C1.65 0 3.3 0 5 0 C5.5625 1.9375 5.5625 1.9375 6 4 C5 5 5 5 2.4375 5.0625 C1.2309375 5.0315625 1.2309375 5.0315625 0 5 C0 3.35 0 1.7 0 0 Z " fill="#FF2299" transform="translate(936,403)"/>
<path d="M0 0 C2.97 0 5.94 0 9 0 C8.67 0.99 8.34 1.98 8 3 C5.6875 3.625 5.6875 3.625 3 4 C2.01 3.34 1.02 2.68 0 2 C0 1.34 0 0.68 0 0 Z " fill="#E8A388" transform="translate(935,239)"/>
<path d="M0 0 C0 0.99 0 1.98 0 3 C-2.9063515 5.80255323 -3.78825048 6 -8 6 C-7.67 5.01 -7.34 4.02 -7 3 C-3.4375 1.3125 -3.4375 1.3125 0 0 Z " fill="#F7C121" transform="translate(921,606)"/>
<path d="M0 0 C1.32 0 2.64 0 4 0 C4 1.65 4 3.3 4 5 C2.68 5.33 1.36 5.66 0 6 C-1.125 2.25 -1.125 2.25 0 0 Z " fill="#686776" transform="translate(926,232)"/>
<path d="M0 0 C0.66 0.66 1.32 1.32 2 2 C4.57061311 2.64767793 4.57061311 2.64767793 7 3 C7 3.99 7 4.98 7 6 C4.69 6 2.38 6 0 6 C0 4.02 0 2.04 0 0 Z " fill="#FF2299" transform="translate(1011,411)"/>
<path d="M0 0 C3.63 0.33 7.26 0.66 11 1 C10.67 1.66 10.34 2.32 10 3 C7.03 3 4.06 3 1 3 C0.67 2.01 0.34 1.02 0 0 Z " fill="#EECACC" transform="translate(1004,238)"/>
<path d="M0 0 C-1.24205807 3.72617422 -3.1110675 5.39291457 -6 8 C-6.66 8 -7.32 8 -8 8 C-6.48291727 4.46014029 -4.24676932 0 0 0 Z " fill="#D9EFEE" transform="translate(928,222)"/>
<path d="M0 0 C0.99 0 1.98 0 3 0 C3 1.65 3 3.3 3 5 C1.68 5.33 0.36 5.66 -1 6 C-1 5.34 -1 4.68 -1 4 C-1.66 3.67 -2.32 3.34 -3 3 C-2.34 3 -1.68 3 -1 3 C-0.67 2.01 -0.34 1.02 0 0 Z " fill="#FFBEE0" transform="translate(979,705)"/>
<path d="M0 0 C-2.6598561 3.44216672 -5.90288286 3.99504674 -10 5 C-7.62417533 -0.26075462 -5.61350876 -0.1220328 0 0 Z " fill="#A0959D" transform="translate(995,283)"/>
<path d="M0 0 C0.99 0.33 1.98 0.66 3 1 C2.21625 1.70125 1.4325 2.4025 0.625 3.125 C-2.08360818 6.09157086 -3.01722715 8.1582516 -4 12 C-4.33 12 -4.66 12 -5 12 C-4.64766839 6.5388601 -4.64766839 6.5388601 -4 4 C-1.9375 2.5 -1.9375 2.5 0 2 C0 1.34 0 0.68 0 0 Z " fill="#E9CDD0" transform="translate(896,272)"/>
<path d="M0 0 C0.33 0 0.66 0 1 0 C1.9765625 6.0546875 1.9765625 6.0546875 2 8 C1.34 8.66 0.68 9.32 0 10 C0 9.34 0 8.68 0 8 C-0.66 8 -1.32 8 -2 8 C-2 6.02 -2 4.04 -2 2 C-1.34 2 -0.68 2 0 2 C0 1.34 0 0.68 0 0 Z " fill="#FF39A2" transform="translate(1021,698)"/>
<path d="M0 0 C2.16874252 0.50603992 3.99967627 0.99983813 6 2 C6.33 1.34 6.66 0.68 7 0 C7 1.98 7 3.96 7 6 C4.69 5.01 2.38 4.02 0 3 C0 2.01 0 1.02 0 0 Z " fill="#FF67B6" transform="translate(956,697)"/>
<path d="M0 0 C0 3 0 3 -1.25 4.6875 C-3 6 -3 6 -7 6 C-5.9024777 3.00675737 -5.32317108 2.15389099 -2.375 0.75 C-1.59125 0.5025 -0.8075 0.255 0 0 Z " fill="#F6BF1E" transform="translate(1026,606)"/>
<path d="M0 0 C0.99 0 1.98 0 3 0 C3 1.98 3 3.96 3 6 C1.68 5.67 0.36 5.34 -1 5 C-0.67 3.35 -0.34 1.7 0 0 Z " fill="#FF6EB9" transform="translate(929,700)"/>
<path d="M0 0 C0.66 0 1.32 0 2 0 C2.70074844 3.153368 3 5.72724974 3 9 C2.01 8.67 1.02 8.34 0 8 C0 5.36 0 2.72 0 0 Z " fill="#FEF381" transform="translate(1013,596)"/>
<path d="M0 0 C0.33 0.99 0.66 1.98 1 3 C1.99 3.33 2.98 3.66 4 4 C3.67 4.66 3.34 5.32 3 6 C2.34 6 1.68 6 1 6 C1 6.66 1 7.32 1 8 C0.34 8 -0.32 8 -1 8 C-1.125 2.25 -1.125 2.25 0 0 Z " fill="#FF68B6" transform="translate(912,502)"/>
<path d="M0 0 C3.96 0.33 7.92 0.66 12 1 C12 1.33 12 1.66 12 2 C8.7 2.33 5.4 2.66 2 3 C1.34 2.01 0.68 1.02 0 0 Z " fill="#94BFC7" transform="translate(946,275)"/>
<path d="M0 0 C3.3 0 6.6 0 10 0 C6 3 6 3 3.3125 2.8125 C1 2 1 2 0 0 Z " fill="#76A993" transform="translate(987,269)"/>
<path d="M0 0 C0.33 0 0.66 0 1 0 C1 2.97 1 5.94 1 9 C0.34 9 -0.32 9 -1 9 C-1.625 6.1875 -1.625 6.1875 -2 3 C-1.34 2.01 -0.68 1.02 0 0 Z " fill="#A5CFA5" transform="translate(907,256)"/>
<path d="M0 0 C1.98 0 3.96 0 6 0 C6.33 1.65 6.66 3.3 7 5 C6.01 4.67 5.02 4.34 4 4 C4.33 3.34 4.66 2.68 5 2 C3.35 1.67 1.7 1.34 0 1 C0 0.67 0 0.34 0 0 Z " fill="#FFF6FA" transform="translate(907,698)"/>
<path d="M0 0 C0.33 0.66 0.66 1.32 1 2 C1.66 2 2.32 2 3 2 C3 2.66 3 3.32 3 4 C1.03852126 5.38938077 -0.96166576 6.7260411 -3 8 C-3.66 7.67 -4.32 7.34 -5 7 C-4.0409375 6.1028125 -4.0409375 6.1028125 -3.0625 5.1875 C-0.79689611 3.09189663 -0.79689611 3.09189663 0 0 Z " fill="#EDD2D1" transform="translate(905,263)"/>
<path d="M0 0 C0.99 0 1.98 0 3 0 C2.67 1.98 2.34 3.96 2 6 C1.01 6 0.02 6 -1 6 C-0.67 4.02 -0.34 2.04 0 0 Z " fill="#FFD6EB" transform="translate(944,705)"/>
<path d="M0 0 C3.26954202 0.56371414 4.82575883 1.49962266 7 4 C6.01 4.33 5.02 4.66 4 5 C1.8125 3.6875 1.8125 3.6875 0 2 C0 1.34 0 0.68 0 0 Z " fill="#FFDDEE" transform="translate(952,704)"/>
<path d="M0 0 C1.65 0 3.3 0 5 0 C5.33 2.31 5.66 4.62 6 7 C5.01 6.67 4.02 6.34 3 6 C2.4375 4.0625 2.4375 4.0625 2 2 C1.34 1.34 0.68 0.68 0 0 Z " fill="#FFCEE8" transform="translate(1066,495)"/>
<path d="M0 0 C-0.33 0.66 -0.66 1.32 -1 2 C-3.96175123 1.38722388 -5.38058783 0.74627478 -8 -1 C-4.37673261 -2.2077558 -3.35853631 -1.54311128 0 0 Z " fill="#FF6CB8" transform="translate(960,704)"/>
<path d="M0 0 C2.0625 0.4375 2.0625 0.4375 4 1 C1.94766315 3.2477975 0.99332739 4.0022242 -2 5 C-1.125 1.125 -1.125 1.125 0 0 Z " fill="#FFDFEF" transform="translate(928,697)"/>
<path d="M0 0 C-0.66 1.32 -1.32 2.64 -2 4 C-3.32 4 -4.64 4 -6 4 C-5.67 3.01 -5.34 2.02 -5 1 C-3 0 -3 0 0 0 Z " fill="#F6BD1A" transform="translate(972,608)"/>
<path d="M0 0 C1.32 0 2.64 0 4 0 C3.67 0.99 3.34 1.98 3 3 C1.35 3.33 -0.3 3.66 -2 4 C-1.34 2.68 -0.68 1.36 0 0 Z " fill="#C5E5EF" transform="translate(944,209)"/>
</svg>
