<?xml version="1.0" encoding="UTF-8"?>
<svg version="1.1" xmlns="http://www.w3.org/2000/svg" width="678" height="387">
<path d="M0 0 C223.74 0 447.48 0 678 0 C678 127.71 678 255.42 678 387 C454.26 387 230.52 387 0 387 C0 259.29 0 131.58 0 0 Z " fill="#000000" transform="translate(0,0)"/>
<path d="M0 0 C66 0 132 0 200 0 C200 0.99 200 1.98 200 3 C134 3 68 3 0 3 C0 2.01 0 1.02 0 0 Z " fill="#385B8B" transform="translate(248,214)"/>
<path d="M0 0 C12.21678151 -0.49360733 12.21678151 -0.49360733 15.89453125 1.82421875 C18 4 18 4 18.5 7.0625 C18 10 18 10 16.625 11.875 C15 13 15 13 13 13 C14.98 16.63 16.96 20.26 19 24 C17.02 24 15.04 24 13 24 C11.42578125 22.28515625 11.42578125 22.28515625 10.3125 20.0625 C8.62320275 16.51830714 8.62320275 16.51830714 5 15 C5 17.97 5 20.94 5 24 C3.35 24 1.7 24 0 24 C0 16.08 0 8.16 0 0 Z " fill="#4C9CF2" transform="translate(221,163)"/>
<path d="M0 0 C1.65 0 3.3 0 5 0 C5.33 2.64 5.66 5.28 6 8 C7.0725 7.7525 8.145 7.505 9.25 7.25 C13 7 13 7 15.21875 8.46875 C17.68911981 11.97927552 17.43924731 15.13023172 17.25 19.25 C17.23195313 19.99507812 17.21390625 20.74015625 17.1953125 21.5078125 C17.14835649 23.33909701 17.07661652 25.16971649 17 27 C15.35 27 13.7 27 12 27 C11.67 21.72 11.34 16.44 11 11 C9.35 11.66 7.7 12.32 6 13 C5.67 17.62 5.34 22.24 5 27 C3.35 27 1.7 27 0 27 C0 18.09 0 9.18 0 0 Z " fill="#4D96DE" transform="translate(394,160)"/>
<path d="M0 0 C2.18359375 1.10546875 2.18359375 1.10546875 4 3 C4.5390625 6.1015625 4.5390625 6.1015625 4.625 9.625 C4.68606262 11.7527973 4.79570345 13.88115293 5 16 C5.66 16.33 6.32 16.66 7 17 C7 17.99 7 18.98 7 20 C5.35 20 3.7 20 2 20 C1.67 19.01 1.34 18.02 1 17 C0.46375 17.495 -0.0725 17.99 -0.625 18.5 C-3.66673285 20.42109443 -5.46049143 20.45185216 -9 20 C-10.875 18.875 -10.875 18.875 -12 17 C-12.4375 14 -12.4375 14 -12 11 C-10.4375 9.125 -10.4375 9.125 -8 8 C-4.25 7.8125 -4.25 7.8125 -1 8 C-1.26676204 6.01508358 -1.26676204 6.01508358 -2 4 C-2.99 3.67 -3.98 3.34 -5 3 C-5 3.99 -5 4.98 -5 6 C-6.98 6 -8.96 6 -11 6 C-10.6875 4.125 -10.6875 4.125 -10 2 C-6.28986601 -0.47342266 -4.38939738 -0.38503486 0 0 Z " fill="#4996EF" transform="translate(275,167)"/>
<path d="M0 0 C2.875 1.5625 2.875 1.5625 5 4 C5.8125 7.75 5.8125 7.75 6 11 C1.71 11 -2.58 11 -7 11 C-6.34 12.32 -5.68 13.64 -5 15 C-1.7 15 1.6 15 5 15 C2.26057998 18.32050912 0.80649943 19.85598224 -3.5 20.625 C-7 20 -7 20 -9.9375 18.125 C-12.82533781 13.74948817 -13.02870363 10.10170093 -12 5 C-8.71154166 0.01748736 -5.83923052 -0.93844776 0 0 Z " fill="#4A97EC" transform="translate(362,167)"/>
<path d="M0 0 C2.875 1.5625 2.875 1.5625 5 4 C5.8125 7.75 5.8125 7.75 6 11 C1.71 11 -2.58 11 -7 11 C-6.34 12.32 -5.68 13.64 -5 15 C-1.7 15 1.6 15 5 15 C2.26057998 18.32050912 0.80649943 19.85598224 -3.5 20.625 C-7 20 -7 20 -9.9375 18.125 C-12.82533781 13.74948817 -13.02870363 10.10170093 -12 5 C-8.71154166 0.01748736 -5.83923052 -0.93844776 0 0 Z " fill="#4A97EC" transform="translate(254,167)"/>
<path d="M0 0 C2.0625 1.9375 2.0625 1.9375 3 4 C3 4.66 3 5.32 3 6 C1.02 6 -0.96 6 -3 6 C-3 5.01 -3 4.02 -3 3 C-4.65 3.33 -6.3 3.66 -8 4 C-8 7.3 -8 10.6 -8 14 C-6.35 14.33 -4.7 14.66 -3 15 C-2.67 14.01 -2.34 13.02 -2 12 C-0.35 12 1.3 12 3 12 C1.55172414 16.5862069 1.55172414 16.5862069 -0.75 18.3125 C-3.72986902 19.22301553 -5.89492688 19.38021303 -9 19 C-12.33761045 16.84909549 -13.73470933 15.79587201 -15 12 C-15.38887761 7.80012182 -15.45908323 5.70392762 -13.125 2.125 C-9.09391007 -1.90608993 -5.30677336 -1.2829562 0 0 Z " fill="#4690E2" transform="translate(386,168)"/>
<path d="M0 0 C6.27 0 12.54 0 19 0 C19 1.32 19 2.64 19 4 C16.69 4 14.38 4 12 4 C12 10.6 12 17.2 12 24 C10.35 24 8.7 24 7 24 C7 17.4 7 10.8 7 4 C4.69 4 2.38 4 0 4 C0 2.68 0 1.36 0 0 Z " fill="#509FF0" transform="translate(328,163)"/>
<path d="M0 0 C3.3 0 6.6 0 10 0 C10.33 7.59 10.66 15.18 11 23 C12.65 23.33 14.3 23.66 16 24 C16 24.99 16 25.98 16 27 C8.60357023 27.48501179 8.60357023 27.48501179 6.25 25.59375 C4.30739965 21.56285428 4.68554111 17.65775206 4.8125 13.25 C4.82603516 12.36183594 4.83957031 11.47367188 4.85351562 10.55859375 C4.88878691 8.37177422 4.93807248 6.18620034 5 4 C3.35 4 1.7 4 0 4 C0 2.68 0 1.36 0 0 Z " fill="#4797F3" transform="translate(287,160)"/>
<path d="M0 0 C3.3 0 6.6 0 10 0 C10 5.28 10 10.56 10 16 C11.98 16 13.96 16 16 16 C16 17.32 16 18.64 16 20 C10.06 20 4.12 20 -2 20 C-2 19.01 -2 18.02 -2 17 C0.31 17 2.62 17 5 17 C5 12.38 5 7.76 5 3 C3.35 3 1.7 3 0 3 C0 2.01 0 1.02 0 0 Z " fill="#4D98E6" transform="translate(309,167)"/>
<path d="M0 0 C0 1.32 0 2.64 0 4 C-6.435 6.97 -6.435 6.97 -13 10 C-8.71 11.65 -4.42 13.3 0 15 C0 16.32 0 17.64 0 19 C-6.46712188 17.83805848 -12.09622349 15.8751252 -18 13 C-18 10.69 -18 8.38 -18 6 C-15.37646482 4.99600476 -12.75132205 3.99665555 -10.125 3 C-9.37863281 2.71382812 -8.63226563 2.42765625 -7.86328125 2.1328125 C-2.2265625 0 -2.2265625 0 0 0 Z " fill="#4995EA" transform="translate(195,165)"/>
<path d="M0 0 C6.20477864 1.93624298 12.10825719 4.25609141 18 7 C18 8.98 18 10.96 18 13 C15.56495491 14.0063655 13.12729136 15.00526413 10.6875 16 C9.99720703 16.28617188 9.30691406 16.57234375 8.59570312 16.8671875 C5.58454326 18.08910744 3.28113016 19 0 19 C0 17.68 0 16.36 0 15 C3.96 13.35 7.92 11.7 12 10 C8.04 8.02 4.08 6.04 0 4 C0 2.68 0 1.36 0 0 Z " fill="#4A96E9" transform="translate(458,165)"/>
<path d="M0 0 C1.32 0 2.64 0 4 0 C4 11.55 4 23.1 4 35 C2.68 35 1.36 35 0 35 C0 23.45 0 11.9 0 0 Z " fill="#1C53A7" transform="translate(508,160)"/>
<path d="M0 0 C1.32 0 2.64 0 4 0 C5.06996173 9.01824887 5.10234659 17.93664124 5 27 C3.35 27 1.7 27 0 27 C0 18.09 0 9.18 0 0 Z " fill="#4E9CEE" transform="translate(394,160)"/>
<path d="M0 0 C1.32 0.33 2.64 0.66 4 1 C2.26291489 4.55373428 0.50273837 8.09492601 -1.27954102 11.6262207 C-2.17861024 13.41976589 -3.05914045 15.22256523 -3.93945312 17.02539062 C-4.50986328 18.15009766 -5.08027344 19.27480469 -5.66796875 20.43359375 C-6.18641357 21.47572021 -6.7048584 22.51784668 -7.23901367 23.59155273 C-9 26 -9 26 -11.70825195 26.84790039 C-12.84266724 26.9231897 -12.84266724 26.9231897 -14 27 C-9.50260575 17.90247914 -4.95550263 8.85983804 0 0 Z " fill="#4695EB" transform="translate(450,160)"/>
<path d="M0 0 C0.86625 0.3403125 0.86625 0.3403125 1.75 0.6875 C1.42 1.3475 1.09 2.0075 0.75 2.6875 C2.07 2.6875 3.39 2.6875 4.75 2.6875 C4.875 6.0625 4.875 6.0625 4.75 9.6875 C2.75 11.6875 2.75 11.6875 -0.1875 12 C-3.25 11.6875 -3.25 11.6875 -5.125 10.5625 C-6.79663625 7.77643958 -6.71376624 5.86761138 -6.25 2.6875 C-4.12558468 0.33546876 -3.18427034 -0.44225977 0 0 Z " fill="#4590E6" transform="translate(269.25,175.3125)"/>
<path d="M0 0 C1.99954746 -0.04254356 4.00041636 -0.04080783 6 0 C7 1 7 1 7.125 3.5 C7 6 7 6 6 7 C4.00041636 7.04080783 1.99954746 7.04254356 0 7 C0 4.69 0 2.38 0 0 Z " fill="#090C15" transform="translate(226,167)"/>
<path d="M0 0 C1.67542976 0.28604898 3.34385343 0.61781233 5 1 C5.33 2.32 5.66 3.64 6 5 C3.36 5 0.72 5 -2 5 C-1.125 1.125 -1.125 1.125 0 0 Z " fill="#0B1525" transform="translate(357,170)"/>
<path d="M0 0 C1.67542976 0.28604898 3.34385343 0.61781233 5 1 C5.33 2.32 5.66 3.64 6 5 C3.36 5 0.72 5 -2 5 C-1.125 1.125 -1.125 1.125 0 0 Z " fill="#0B1525" transform="translate(249,170)"/>
<path d="M0 0 C0.33 0 0.66 0 1 0 C1.33 2.64 1.66 5.28 2 8 C2.99 8.33 3.98 8.66 5 9 C5.33 9.66 5.66 10.32 6 11 C4.35 11.66 2.7 12.32 1 13 C-0.32229189 10.35541621 -0.09677194 8.32238699 -0.0625 5.375 C-0.05347656 4.37210938 -0.04445313 3.36921875 -0.03515625 2.3359375 C-0.02355469 1.56507813 -0.01195312 0.79421875 0 0 Z " fill="#467DA4" transform="translate(398,160)"/>
<path d="M0 0 C1.65 0 3.3 0 5 0 C4.67 1.65 4.34 3.3 4 5 C2.68 5 1.36 5 0 5 C0 3.35 0 1.7 0 0 Z " fill="#03040A" transform="translate(269,178)"/>
<path d="M0 0 C2.0625 0.4375 2.0625 0.4375 4 1 C-0.75 5.875 -0.75 5.875 -3 7 C-1.125 1.125 -1.125 1.125 0 0 Z " fill="#3E8DEE" transform="translate(450,160)"/>
<path d="M0 0 C1.65 0 3.3 0 5 0 C5 1.32 5 2.64 5 4 C3.35 4 1.7 4 0 4 C0 2.68 0 1.36 0 0 Z " fill="#498ED1" transform="translate(314,160)"/>
</svg>
